<svg xmlns="http://www.w3.org/2000/svg" xmlns:xlink="http://www.w3.org/1999/xlink" width="60.9" height="37.027" viewBox="0 0 60.9 37.027">
  <defs>
    <clipPath id="clip-path">
      <rect id="Rectangle_3078" data-name="Rectangle 3078" width="60.9" height="37.027" fill="none"/>
    </clipPath>
  </defs>
  <g id="Group_3680" data-name="Group 3680" transform="translate(0 0)">
    <g id="Group_3679" data-name="Group 3679" transform="translate(0 0)" clip-path="url(#clip-path)">
      <path id="Path_1374" data-name="Path 1374" d="M6.034,33.493l-1.988-.839-2.649-.8L.58,30.225A11.1,11.1,0,0,1,1.728,25.1a3.738,3.738,0,0,1,.529-1.811l-.044-1.766a58.772,58.772,0,0,1,5.63-3.533,7.975,7.975,0,0,1-.9-.949A98.353,98.353,0,0,1,25.795,15.5a33.542,33.542,0,0,1,9.892,1.369c.772.309,7.176,3.6,8.058,3.974a12.266,12.266,0,0,0,3.268,1.1c1.369.22,9.053,1.369,12.211,4.57a3.1,3.1,0,0,1,.552,1.656,1.859,1.859,0,0,1,.441,1.149,16.459,16.459,0,0,1-.619,2.715,3.168,3.168,0,0,1,.729.133c.133.089-.045.619-.332.751a36.85,36.85,0,0,1-3.621.861H52.269" transform="translate(-0.071 -1.897)" fill="#fff"/>
      <path id="Path_1375" data-name="Path 1375" d="M52.265,34.23a.552.552,0,1,1,0-1.1h4.107l3-.663a.552.552,0,0,1-.309-.663,14.773,14.773,0,0,0,.618-2.561,1.326,1.326,0,0,0-.331-.773.549.549,0,0,1-.133-.376,2.476,2.476,0,0,0-.441-1.325c-1.877-1.9-6.183-3.488-11.835-4.349a12.169,12.169,0,0,1-3.223-1.06l-.221-.089-3.357-1.656q-2.314-1.21-4.681-2.318a33.441,33.441,0,0,0-9.67-1.324A106.3,106.3,0,0,0,8.017,17.295l.22.177a.551.551,0,0,1-.133.883,54.884,54.884,0,0,0-5.32,3.357l.022,1.5a.529.529,0,0,1-.133.375,3.089,3.089,0,0,0-.4,1.458.549.549,0,0,1-.111.309,10.164,10.164,0,0,0-1.038,4.659l.663,1.325,2.429.728,1.988.884a.552.552,0,1,1-.268,1.071.537.537,0,0,1-.175-.077L3.778,33.1l-2.562-.773a.549.549,0,0,1-.353-.287l-.8-1.634A.572.572,0,0,1,0,30.167a11.877,11.877,0,0,1,1.149-5.3,4.284,4.284,0,0,1,.529-1.811l-.044-1.611A.552.552,0,0,1,1.857,21q2.43-1.726,5.012-3.223a3.688,3.688,0,0,1-.441-.508.552.552,0,0,1,.354-.861,100.022,100.022,0,0,1,18.988-1.568,33.973,33.973,0,0,1,10.091,1.414c.441.154,2.253,1.1,4.769,2.34l3.312,1.656.221.089a11.029,11.029,0,0,0,2.914.949c3.466.53,9.671,1.855,12.52,4.725a3.45,3.45,0,0,1,.684,1.832,2.37,2.37,0,0,1,.485,1.392,11.39,11.39,0,0,1-.463,2.252,1.311,1.311,0,0,1,.287.111.685.685,0,0,1,.309.64,1.344,1.344,0,0,1-.663,1.082,34.093,34.093,0,0,1-3.8.884Z" transform="translate(0 -1.817)" fill="#e1c591"/>
      <path id="Path_1377" data-name="Path 1377" d="M11.505,29.112A4.836,4.836,0,1,1,6.67,33.947a4.835,4.835,0,0,1,4.835-4.835" transform="translate(-0.817 -3.566)" fill="#dedfe0"/>
      <path id="Path_1378" data-name="Path 1378" d="M11.428,39.282a5.4,5.4,0,1,0,0-.022Zm0-9.715a4.294,4.294,0,1,1,0,.022Z" transform="translate(-0.74 -3.492)" fill="#e1c591"/>
      <path id="Path_1379" data-name="Path 1379" d="M11.795,31.477a2.76,2.76,0,1,1-2.76,2.76,2.76,2.76,0,0,1,2.76-2.76" transform="translate(-1.107 -3.856)" fill="#fff"/>
      <path id="Path_1380" data-name="Path 1380" d="M9.229,35.317a2.76,2.76,0,1,1,.839,1.082" transform="translate(-1.102 -3.853)" fill="#fff"/>
      <path id="Path_1381" data-name="Path 1381" d="M11.755,37.243a3,3,0,0,1-1.9-.663.287.287,0,0,1-.044-.4.263.263,0,0,1,.371-.047l0,0a2.5,2.5,0,1,0-.928-1.965V34.2a2.421,2.421,0,0,0,.2.971.285.285,0,0,1-.154.353.265.265,0,0,1-.352-.129v0a3.046,3.046,0,1,1,2.782,1.855Z" transform="translate(-1.066 -3.815)" fill="#e1c591"/>
      <path id="Path_1382" data-name="Path 1382" d="M53.625,29.112a4.836,4.836,0,1,1-4.835,4.835,4.835,4.835,0,0,1,4.835-4.835" transform="translate(-5.975 -3.566)" fill="#dedfe0"/>
      <path id="Path_1383" data-name="Path 1383" d="M53.548,39.282a5.4,5.4,0,1,0,0-.022Zm0-9.715a4.294,4.294,0,1,1,0,.022Z" transform="translate(-5.898 -3.492)" fill="#e1c591"/>
      <path id="Path_1384" data-name="Path 1384" d="M53.915,31.477a2.76,2.76,0,1,1-2.76,2.76,2.76,2.76,0,0,1,2.76-2.76" transform="translate(-6.265 -3.856)" fill="#fff"/>
      <path id="Path_1385" data-name="Path 1385" d="M56.675,34.234a2.759,2.759,0,1,1-1.634-2.54" transform="translate(-6.265 -3.853)" fill="#fff"/>
      <path id="Path_1386" data-name="Path 1386" d="M50.05,37.244a3.047,3.047,0,0,1,0-6.094,2.989,2.989,0,0,1,1.236.265.265.265,0,0,1,.147.344.332.332,0,0,1-.015.031.287.287,0,0,1-.354.133,2.428,2.428,0,0,0-1.015-.22A2.495,2.495,0,1,0,52.545,34.2a.287.287,0,1,1,.552,0,3.046,3.046,0,0,1-3.047,3.047m-4.5-.728H20.155a.552.552,0,1,1,0-1.1H45.546a.552.552,0,1,1,0,1.1" transform="translate(-2.401 -3.815)" fill="#e1c591"/>
      <path id="Path_1387" data-name="Path 1387" d="M45.419,23.308c-.883-.376-7.286-3.665-8.081-3.974a33.54,33.54,0,0,0-9.87-1.369l-11.57.552-.22,2.142a5.6,5.6,0,0,0,3.577,1.324l11.04,1.1c1.17.089,15.1.221,15.1.221Z" transform="translate(-1.92 -2.2)" fill="#dedfe0"/>
      <path id="Path_1388" data-name="Path 1388" d="M45.337,23.783c-.574,0-13.954-.154-15.146-.22l-11.129-1.1a6.021,6.021,0,0,1-3.93-1.523.528.528,0,0,1-.111-.419l.22-2.141a.553.553,0,0,1,.486-.486l11.614-.552a33.97,33.97,0,0,1,10.09,1.413c.442.177,2.253,1.1,4.769,2.363l3.313,1.634a.552.552,0,0,1-.221,1.059ZM16.148,20.339a6.266,6.266,0,0,0,3.047.993l11.04,1.1c.883.067,8.611.177,12.651.221l-1.17-.574-4.681-2.318a33.414,33.414,0,0,0-9.671-1.325l-11.084.486Z" transform="translate(-1.839 -2.123)" fill="#e1c591"/>
      <path id="Path_1389" data-name="Path 1389" d="M28.6,30.01a.286.286,0,0,1-.287-.265A101.444,101.444,0,0,0,26.48,15.481a.28.28,0,0,1,.552-.089,101.923,101.923,0,0,1,1.833,14.352.288.288,0,0,1-.265.287ZM17.847,23.893H15.573a.287.287,0,0,1,0-.552h2.252a.287.287,0,0,1,0,.552Zm13.756.949H29.35a.287.287,0,0,1,0-.552H31.6a.287.287,0,0,1,0,.552m9.494-1.28h1.612a.641.641,0,1,0,0-1.28H41.1Z" transform="translate(-1.882 -1.858)" fill="#e1c591"/>
      <path id="Path_1390" data-name="Path 1390" d="M42.71,24.1H41.1a.552.552,0,0,1-.552-.552v-1.28a.552.552,0,0,1,.552-.552H42.71a1.2,1.2,0,1,1,0,2.406Zm-1.06-1.1h1.06V22.84H41.65ZM15.772,16l-.221-.949s1.458-.044,1.766.8" transform="translate(-1.905 -1.843)" fill="#e1c591"/>
      <path id="Path_1391" data-name="Path 1391" d="M15.736,16.245a.286.286,0,0,1-.265-.221l-.221-.949a.288.288,0,0,1,.287-.331c.089,0,1.634,0,2.031.993a.265.265,0,0,1-.14.348l-.015.006a.288.288,0,0,1-.354-.154c-.176-.441-.772-.574-1.17-.619l.133.6a.265.265,0,0,1-.188.324.2.2,0,0,1-.033.007.275.275,0,0,1-.066,0m2.1,5.365a.286.286,0,0,1-.287-.287V17.945a.287.287,0,0,1,.552-.157.281.281,0,0,1,0,.157v3.4a.287.287,0,0,1-.265.287Zm43.806,6.955a.265.265,0,0,1-.111,0L57.775,26.91c-.575-.287-3.445-2.075-3.533-2.142a.286.286,0,0,1-.054-.4.283.283,0,0,1,.164-.105,23.087,23.087,0,0,1,5.961,1.148.287.287,0,0,1-.155.53,33.631,33.631,0,0,0-4.768-1.1l2.649,1.589,3.71,1.612a.287.287,0,0,1,.1.394.282.282,0,0,1-.206.136" transform="translate(-1.867 -1.806)" fill="#e1c591"/>
      <path id="Path_1392" data-name="Path 1392" d="M56.318,27.249c-.574-.287-3.533-2.141-3.533-2.141a8.845,8.845,0,0,1,2.429.265Zm.619,5.851a.287.287,0,0,1-.265-.243.265.265,0,0,1,.213-.308h.007l2.959-.309a.243.243,0,0,1,.283.195.291.291,0,0,1,0,.048.264.264,0,0,1-.213.307l-.007,0-2.937.309ZM13.97,21.4a.553.553,0,0,1-.309-.111A3.844,3.844,0,0,0,12,20.626l-7.088.331A.552.552,0,0,1,4.63,19.9a71.808,71.808,0,0,1,7.4-.4,4.86,4.86,0,0,1,2.3.861.552.552,0,0,1-.331.993ZM2.488,24.048a.287.287,0,0,1-.066-.53,10.333,10.333,0,0,1,2.119-.287l3.533.133.552-.221-5.388-1.5a.274.274,0,1,1,.133-.529l6.183,1.722a.278.278,0,0,1,.044.53l-1.369.53a.364.364,0,0,1-.111.022c-.044,0-2.716-.133-3.6-.133a10.184,10.184,0,0,0-1.988.265.207.207,0,0,1-.066,0Z" transform="translate(-0.278 -2.389)" fill="#e1c591"/>
      <path id="Path_1393" data-name="Path 1393" d="M6.1,23.942l1.854.089,1.369-.552L6.23,22.595ZM42.86,32.995H15.548a.287.287,0,0,1,0-.552H42.883a.287.287,0,0,1,0,.552ZM5.987,32.443H5.921L.555,31.4a.287.287,0,0,1,.111-.552l5.365,1.06a.287.287,0,0,1-.066.53Z" transform="translate(-0.046 -2.768)" fill="#e1c591"/>
      <path id="Path_1394" data-name="Path 1394" d="M57.29,0a7.065,7.065,0,1,1-7.067,7.066A7.066,7.066,0,0,1,57.29,0" transform="translate(-6.151 0)" fill="#e1c591"/>
      <path id="Path_1395" data-name="Path 1395" d="M59.377,2.843,55.734,7.921h1.392l-.707,4.063,3.709-5.3H58.8l.552-3.842Z" transform="translate(-6.826 -0.349)" fill="#fff"/>
    </g>
  </g>
</svg>
