<svg id="Group_3846" data-name="Group 3846" xmlns="http://www.w3.org/2000/svg" xmlns:xlink="http://www.w3.org/1999/xlink" width="20" height="20.015" viewBox="0 0 20 20.015">
  <defs>
    <clipPath id="clip-path">
      <rect id="Rectangle_3239" data-name="Rectangle 3239" width="20" height="20.015" fill="#e1c591"/>
    </clipPath>
  </defs>
  <g id="Group_3845" data-name="Group 3845" clip-path="url(#clip-path)">
    <path id="Path_1946" data-name="Path 1946" d="M9.523,55.89H8.507c-.121-.015-.242-.033-.363-.046a8.714,8.714,0,0,1-4.807-2.016A8.863,8.863,0,0,1,.192,44.946a8.673,8.673,0,0,1,2.384-4.488,8.989,8.989,0,0,1,4.493-2.535.472.472,0,0,1,.652.509c0,.443-.005.886.005,1.329a2.656,2.656,0,0,0,2.068,2.525,4.965,4.965,0,0,1,2.055.9,4.724,4.724,0,0,1,1.741,2.895,2.575,2.575,0,0,0,2.193,2.028c.553.066,1.117.036,1.677.047.393.008.607.259.491.631a12.868,12.868,0,0,1-.616,1.784,8.976,8.976,0,0,1-6.942,5.214c-.287.049-.579.073-.869.108m-.45-11.827a2.727,2.727,0,1,0,2.736,2.709,2.73,2.73,0,0,0-2.736-2.709m-4.056-.008a1.359,1.359,0,1,0-1.392-1.34,1.367,1.367,0,0,0,1.392,1.34m6.8,6.833a1.359,1.359,0,1,0,1.366-1.368,1.369,1.369,0,0,0-1.366,1.368m-5.464,0A1.364,1.364,0,1,0,4.972,52.25a1.381,1.381,0,0,0,1.381-1.358" transform="translate(0 -35.875)" fill="#e1c591"/>
    <path id="Path_1947" data-name="Path 1947" d="M172.907,11.023a.576.576,0,0,1-.608.353c-1.029-.007-2.058,0-3.087-.005a1.755,1.755,0,0,1-1.746-1.111c-.129-.309-.163-.656-.272-.975a5.371,5.371,0,0,0-4.022-3.69,2.008,2.008,0,0,1-1.349-.84,1.924,1.924,0,0,1-.288-1.039q0-1.583,0-3.166c0-.375.183-.562.551-.549a10.772,10.772,0,0,1,9.3,5.388,10.224,10.224,0,0,1,1.483,4.742,1.009,1.009,0,0,0,.033.15Zm-3.351-1.439a.883.883,0,0,0,.12-.033c.253-.1.337-.324.249-.652a8.209,8.209,0,0,0-3.9-5.1,7.545,7.545,0,0,0-2.112-.84.449.449,0,0,0-.576.536c.061.244.261.316.476.376A7.237,7.237,0,0,1,168.691,8.1c.157.355.254.736.377,1.105a.467.467,0,0,0,.489.375" transform="translate(-152.907 0)" fill="#e1c591"/>
  </g>
</svg>
