<svg xmlns="http://www.w3.org/2000/svg" width="18.324" height="10.359" viewBox="0 0 18.324 10.359">
  <path id="Path_1489" data-name="Path 1489" d="M1011.874,955.736c.268-.658.879-.609,1.3-.181,2.388,2.426,4.8,4.829,7.2,7.24.048.048.09.1.188.213a1.01,1.01,0,0,1,.116-.2q3.638-3.655,7.279-7.307a.715.715,0,0,1,.772-.244.663.663,0,0,1,.316,1.045,1.623,1.623,0,0,1-.126.137q-3.916,3.928-7.835,7.851a1.12,1.12,0,0,1-.455.264.57.57,0,0,1-.546-.157c-.05-.045-.1-.093-.146-.141q-3.85-3.861-7.7-7.726a4.3,4.3,0,0,1-.368-.492Z" transform="translate(-1011.374 -954.721)" fill="#949494" stroke="#949494" stroke-width="1"/>
</svg>
