<svg xmlns="http://www.w3.org/2000/svg" width="14.008" height="8.494" viewBox="0 0 14.008 8.494">
  <path id="Path_1373" data-name="Path 1373" d="M1011.874,955.578c.186-.456.609-.422.9-.126,1.655,1.681,3.326,3.346,4.991,5.017.033.033.062.07.13.147a.693.693,0,0,1,.08-.137q2.521-2.532,5.044-5.063a.5.5,0,0,1,.535-.169.459.459,0,0,1,.219.724,1.131,1.131,0,0,1-.087.095q-2.713,2.722-5.429,5.44a.774.774,0,0,1-.315.183.4.4,0,0,1-.378-.109c-.035-.031-.068-.064-.1-.1q-2.668-2.676-5.334-5.353a2.966,2.966,0,0,1-.255-.341Z" transform="translate(-1010.874 -954.216)" fill="#fff" stroke="#fff" stroke-width="2"/>
</svg>
