<svg id="Group_3763" data-name="Group 3763" xmlns="http://www.w3.org/2000/svg" xmlns:xlink="http://www.w3.org/1999/xlink" width="21.302" height="13.014" viewBox="0 0 21.302 13.014">
  <defs>
    <clipPath id="clip-path">
      <rect id="Rectangle_3072" data-name="Rectangle 3072" width="21.302" height="13.014" fill="#e1c591"/>
    </clipPath>
  </defs>
  <g id="Group_3674" data-name="Group 3674" clip-path="url(#clip-path)">
    <path id="Path_1345" data-name="Path 1345" d="M298.229,8.365h-1l-.016-.057,2.7-2.016a1.486,1.486,0,0,1-.085.145c-.361.444-.721.889-1.085,1.325a.26.26,0,0,1-.176.089,1.387,1.387,0,0,0-.851.34,1.608,1.608,0,0,0-.115.138h.628c0,.012,0,.024,0,.036" transform="translate(-289.345 -6.022)" fill="#e1c591"/>
    <path id="Path_1346" data-name="Path 1346" d="M279.026,6.985c.333-.235.666-.472,1-.705.548-.383,1.1-.769,1.646-1.144a1.982,1.982,0,0,1,.343-.155l.017.085c-.134.09-.271.17-.4.27-.742.568-1.479,1.15-2.226,1.7-.105.078-.251.011-.378.011q0-.031,0-.063" transform="translate(-271.641 -4.767)" fill="#e1c591"/>
    <path id="Path_1347" data-name="Path 1347" d="M26.576,113.339c.116-.013.215-.016.241.233.023.226.123.31.268.268-.25.167-.42.027-.509-.5" transform="translate(-25.873 -108.472)" fill="#e1c591"/>
    <path id="Path_1348" data-name="Path 1348" d="M19.964,9.827a.32.32,0,0,1-.007-.285q.559-1.314,1.112-2.635c.073-.174.146-.349.233-.558H18.054l0-.058c.186-.03.372-.072.559-.087s.388,0,.582,0c.173,0,.211-.063.222-.4h-.5l-.009-.058a3.99,3.99,0,0,0,.685-1.574c.01-.04.044-.063.062-.1a.637.637,0,0,0,.086-.214c.017-.279.016-.561.027-.842s-.011-.347-.188-.374a2.658,2.658,0,0,1-.55-.052c-.532-.2-1.059-.429-1.588-.65a.2.2,0,0,1-.106-.077.385.385,0,0,0-.325-.2,1.131,1.131,0,0,1-.242-.078c-.083-.037-.161-.1-.243-.135s-.172-.044-.255-.083c-.107-.049-.209-.122-.316-.173-.074-.036-.153-.048-.228-.082-.091-.041-.179-.1-.271-.14s-.18-.051-.267-.09a2.358,2.358,0,0,0-.282-.153C14.791.7,14.675.7,14.58.551a.247.247,0,0,0-.173-.085c-.326-.073-.652-.136-.977-.21a8.724,8.724,0,0,0-2.45-.246,4.926,4.926,0,0,0-.5.08l0,.046.23.122c-.043.065-.066.108-.093.141C10.145.984,9.673,1.568,9.2,2.147c-.093.114-.192.284-.294.3a4.367,4.367,0,0,1-.95,0c-.324-.032-.644-.152-.968-.172-.656-.041-1.312-.062-1.968-.051a3.538,3.538,0,0,0-1.909.5A16.906,16.906,0,0,0,1.629,3.887c-.2.161-.39.344-.584.516.163-.43.5-.43.694-.785A2.609,2.609,0,0,0,.624,4.628c.094.022.149.039.2.047.2.029.359.149.462.454.128.377.1.485-.17.5-.006,0-.012.017-.043.066l.68.657H.005c.027.071.039.107.053.141Q.683,7.979,1.308,9.461a.424.424,0,0,1,.021.393C.912,10.819.5,11.8.094,12.769c-.029.068-.054.14-.094.245H21.3c-.038-.1-.061-.174-.09-.241q-.621-1.474-1.244-2.945m-6.2-8.117V.532h.008V1.712H13.76M9.62,1.828C10,1.348,10.376.872,10.759.405a.322.322,0,0,1,.217-.116,8.109,8.109,0,0,1,2.106.2.227.227,0,0,0,.157-.01L12.5.332l0-.045.905.091c0,.179-.153.419-.266.39l.092-.177L13.229.568C13.2.6,13.158.62,13.147.663a5.487,5.487,0,0,1-.678,1.488c.08-.113.159-.179.248.032-.1.083-.189.1-.278-.007.032.257.152.1.231.119.035.01.077-.044.139-.035l-.057.152-.532.042L12.211,2.4l.13-.128a4.444,4.444,0,0,1-.793.176c-.753.031-1.507.024-2.26.031a1.178,1.178,0,0,1-.125-.016c.168-.235.308-.446.457-.637m3.491-.374L13.1,1.5l-.213-.021.09-.179.135.157m-.24.5h-.208c.081-.216.1-.215.208,0M3.6,11.689a.951.951,0,0,1-.772.527c-.246,0-.438-.163-.528-.526a5.5,5.5,0,0,1-.16-1.008,5.22,5.22,0,0,1,.667-3.087.95.95,0,0,1,.77-.533c.264-.005.445.192.556.569A4.883,4.883,0,0,1,4.289,8.97,5.136,5.136,0,0,1,3.6,11.689M3.92,3.211a1.412,1.412,0,0,1,1.9.764A3.823,3.823,0,0,1,6.3,5.52c.017.149.046.239.146.245L6.32,5.8v.531H5.959A3.62,3.62,0,0,0,5.6,3.9a1.29,1.29,0,0,0-1.088-.746C3.653,3.127,2.761,4.492,3.06,6.33H2.832c.02-.407.028-.807.06-1.2.081-1,.423-1.668,1.028-1.919M3.288,3.6a1.3,1.3,0,0,1,2.392.021A1.427,1.427,0,0,0,3.288,3.6M4.969,5.927c.035-.117.01-.336.156-.288a.185.185,0,0,1,.067.133c-.02.14-.056.273-.092.433-.073-.1-.184-.1-.131-.279m0,.318-.026.119-.175-.088c.009-.043.025-.124.027-.123.059.026.117.06.175.092m.075-1.126.043.024.063.285c-.08.068-.163.067-.2-.046-.015-.047.061-.173.095-.263m-.118-.028c-.229-.248-.229-.248-.14-.52l.289.332-.149.188m.064-.4a.536.536,0,0,0-.866-.048c-.308.37-.356.84-.165,1.674-.192.043-.3-.079-.346-.389-.12-.82.222-1.682.732-1.843.536-.169,1.051.4,1.129,1.259a1.655,1.655,0,0,1-.1.848c-.079.179-.163.137-.263.139A1.792,1.792,0,0,0,4.987,4.7m-.316-.08-.129.293-.124-.233.026-.059Zm-.72.881-.025-.054L4,5.075l.132.3L3.951,5.5m0,.68-.1-.526c.105-.011.184-.086.216.112.028.17.092.344-.115.413M4,4.918c.086-.11.155-.209.231-.288.018-.019.082.015.088.046a.382.382,0,0,1,0,.2,1.232,1.232,0,0,1-.174.211L4,4.918m.391,1.295c-.01.029-.061.031-.09.023a.377.377,0,0,1-.014-.125c0-.127,0-.255,0-.382,0-.084,0-.167,0-.251,0-.113-.006-.226,0-.338,0-.057.011-.114.016-.171a.707.707,0,0,1,.095.059c.063.053.123.112.185.166.046.04.107.058.136.119.056.117.118.178.209.182.026,0,.051.051.106.109-.062.049-.093.071-.123.1-.057.053-.114.109-.169.166-.037.037-.069.1-.108.114a.352.352,0,0,0-.236.232m1.781,5.468a.955.955,0,0,1-.743.532c-.3.009-.486-.186-.6-.646a5.093,5.093,0,0,1-.13-1.43,4.986,4.986,0,0,1,.684-2.55.941.941,0,0,1,.785-.525c.241,0,.41.182.521.521a5.411,5.411,0,0,1,.168,1.648,4.89,4.89,0,0,1-.681,2.45M8.835,7.92q-.306,1.829-.613,3.657c-.04.241-.026.272.132.274.114,0,.227,0,.343,0,.023.161,0,.244-.095.244l-1.347,0a.147.147,0,0,1-.049-.02c-.019-.169.027-.228.122-.221.075.005.15,0,.224,0,.187,0,.21-.028.258-.314q.253-1.508.5-3.017c.02-.121.037-.244.056-.37-.185.071-.355.137-.526.2,0,0-.014-.059-.022-.1.148-.1.291-.187.431-.289a1.591,1.591,0,0,0,.506-.667c.032-.073.1-.1.154-.153l.036.063c-.039.238-.076.477-.116.715M7.651,5.255c0,.5-.051.472.288.453a4.763,4.763,0,0,1,.747.023H7.37c.257-.03.257-.03.257-.448,0-.5,0-1,.024-1.5,0,.489,0,.979,0,1.468M7.9,2.838c-.178,0-.352-.049-.529-.06S7,2.731,6.817,2.707s-.378-.051-.567-.072-.369-.046-.554-.051a5.071,5.071,0,0,0-2.849.638c-.251.15-.5.319-.748.477a.118.118,0,0,1-.135,0c.139-.113.277-.23.418-.338a4.616,4.616,0,0,1,3.461-.984c.681.079,1.363.118,2.045.161.7.044,1.4.1,2.1.1.9,0,1.806-.044,2.709-.072a2.51,2.51,0,0,0,.263-.038l-.2-.112-.006,0,0-.005h0a.285.285,0,0,0,.041-.025.065.065,0,0,0,.013-.015c.109-.173.216-.349.3-.477.076.042.117.087.157.083.155-.013.31-.06.464-.058a2.358,2.358,0,0,1,.619.1l-.579.218v.052a7.105,7.105,0,0,1,5.185.391l0,.089c-.07-.007-.14-.011-.21-.023a18.5,18.5,0,0,0-2.3-.373,19.961,19.961,0,0,0-2.493.162c-.2.017-.2.043-.218.329L13.7,2.6a4.074,4.074,0,0,0-.5.12,2.115,2.115,0,0,1-.707.094c-1.088.026-2.176.049-3.265.059-.445,0-.89-.037-1.334-.036m9.2.447A1.843,1.843,0,0,0,16,2.921a1.6,1.6,0,0,0-1.107.394,1.517,1.517,0,0,1,2.213-.03m-5.31,2.36V5.613h1.337c0,.011,0,.021,0,.032Zm1.13.264a1.283,1.283,0,0,1-.111.358c-.046.071-.134.072-.2.1L12.59,6.3c.072-.161.14-.325.217-.479.019-.038.065-.039.1-.058a.507.507,0,0,1,.016.148M9.593,5.672h1.314c0,.005,0,.011,0,.016H9.593c0-.005,0-.011,0-.016m3.014,1.367c-.082.644-.164,1.287-.25,1.93a.5.5,0,0,1-.073.149.759.759,0,0,1-.05-.168c-.02-.312-.017-.63-.054-.936-.116-.944-.675-1.243-1.105-.574a3.83,3.83,0,0,0-.4.941,7.752,7.752,0,0,0-.3,2.688c.048.82.384,1.085.865.81a2.153,2.153,0,0,0,.8-1.355c.043-.158.09-.2.175-.088-.151.942-.7,1.979-1.5,1.768-.394-.1-.623-.543-.729-1.14a5.056,5.056,0,0,1,.175-2.39,3.611,3.611,0,0,1,.75-1.441,1.531,1.531,0,0,1,.5-.354c.28-.119.529.012.736.354.166.275.247.235.326-.138.019-.09.012-.236.132-.174,0,.047,0,.083,0,.117m1.669,5.053c-.186.222-.377.084-.428-.285-.018-.13-.024-.264-.039-.428-.109.206-.2.391-.3.56-.141.238-.317.3-.509.207a.732.732,0,0,1-.313-.633,3.49,3.49,0,0,1,.592-2.449.691.691,0,0,1,.284-.216c.25-.1.4.025.518.4.012.037.024.073.053.164.048-.36.1-.663.382-.473-.011.083-.02.179-.036.271-.114.7-.23,1.392-.344,2.089a2.4,2.4,0,0,0-.039.357,1.294,1.294,0,0,0,.044.248c.052-.028.128-.03.151-.087.111-.279.207-.575.311-.862a.232.232,0,0,1,.109-.137,2.673,2.673,0,0,1-.439,1.275m.281-5.761H14.27c0-.164-.007-.32,0-.474.011-.186-.028-.269-.147-.245a.757.757,0,0,1-.142,0l0-.148c.012.009.021.011.023.018.052.172.147.094.221.08.022,0,.044-.133.049-.208.016-.234.008-.474.037-.7a1.741,1.741,0,0,1,.648-1.246,1.64,1.64,0,0,1,2.122.03,2.022,2.022,0,0,1,.653,1.592c.02.427.047.853.072,1.3h-.353a3.252,3.252,0,0,0-.643-2.79,1,1,0,0,0-1.643.03,3.3,3.3,0,0,0-.61,2.762m1.705-.716-.036,0c.009.181.019.362.024.544,0,.032-.022.089-.038.093a.073.073,0,0,1-.076-.041.294.294,0,0,0-.211-.219c-.046-.014-.085-.093-.128-.138s-.107-.1-.16-.156c-.033-.033-.064-.072-.1-.108.031-.035.062-.073.094-.1.056-.055.115-.1.171-.16.037-.036.07-.1.108-.112a.329.329,0,0,0,.24-.221c.011-.026.053-.031.079-.024s.035.068.03.08a.93.93,0,0,0,0,.565M15.5,5.132l.108.236-.171.133L15.4,5.447l.049-.3.047-.017M15.471,4.9l.28-.329c.1.253.1.253-.136.527l-.144-.2m.1,1c.055.216-.056.2-.138.3l-.1-.513c.16-.1.161-.086.238.215m.193.258c0,.053.007.15,0,.151a1.339,1.339,0,0,1-.186.022l-.008-.1.19-.072m.123-1.482.027-.057h.235l-.138.292-.124-.235m.3.15.068-.272.292.347-.144.2-.215-.275m.328.3.05.024.06.354-.207-.113.1-.264m-.028.6c.022-.067.112-.075.171-.11l.033.071-.1.5c-.188-.155-.2-.169-.1-.463M16.44,4.673a.546.546,0,0,0-.9.031,1.82,1.82,0,0,0-.111,1.62c-.247.057-.275.029-.342-.327a1.858,1.858,0,0,1,.6-1.852c.485-.264,1.021.135,1.192.89A2.02,2.02,0,0,1,16.9,6c-.083.322-.048.339-.326.326a1.762,1.762,0,0,0-.136-1.656m.342,4.936c-.073.179-.214.249-.31.155a.48.48,0,0,1-.045-.491c.014-.042.025-.086.038-.129l-.024-.056c-.048.046-.112.073-.142.14a3.855,3.855,0,0,0-.229.6q-.252.965-.478,1.947c-.081.353-.1.383-.359.288.011-.081.021-.162.034-.242.109-.655.221-1.308.326-1.965a4.928,4.928,0,0,0,.058-.589c.007-.176-.06-.231-.153-.134a.59.59,0,0,0-.128.21c-.081.236-.149.484-.227.723a.569.569,0,0,1-.084.132.622.622,0,0,1-.013-.18c.077-.271.153-.546.249-.8a.9.9,0,0,1,.217-.332c.182-.168.351-.043.389.289.025.219.02.447.03.7.065-.18.118-.351.185-.505a2.529,2.529,0,0,1,.228-.438.226.226,0,0,1,.4.008.826.826,0,0,1,.036.672m1.719.206c-.017.152-.1.248-.2.217a.312.312,0,0,1-.173-.184.352.352,0,0,1,.078-.348.241.241,0,0,0,.02-.318.315.315,0,0,0-.433-.139.543.543,0,0,0-.285.482.6.6,0,0,0,.109.471c.139.163.276.332.412.5a1.136,1.136,0,0,1,.1,1.216.671.671,0,0,1-.652.468.51.51,0,0,1-.493-.326A1.072,1.072,0,0,1,16.928,11c.062-.134.144-.187.244-.127a.29.29,0,0,1,.1.31.443.443,0,0,1-.1.2.334.334,0,0,0,.008.474.448.448,0,0,0,.623.036.763.763,0,0,0,.07-.933,3.449,3.449,0,0,0-.366-.457,1.3,1.3,0,0,1-.03-1.413c.33-.464.85-.339,1.009.268a1.336,1.336,0,0,1,.017.453" transform="translate(0 0)" fill="#e1c591"/>
    <path id="Path_1349" data-name="Path 1349" d="M491.823,52.943l.664-.181.008.07-.663.192-.009-.081" transform="translate(-478.806 -50.498)" fill="#e1c591"/>
    <path id="Path_1350" data-name="Path 1350" d="M191.174,174.131a11.717,11.717,0,0,1,.617-3.222.677.677,0,0,1,.409-.465c.18-.048.319.058.353.345a4.591,4.591,0,0,1,.031.929,12.139,12.139,0,0,1-.5,2.647,1.846,1.846,0,0,1-.267.546c-.292.375-.576.177-.626-.417-.01-.12-.01-.242-.014-.363" transform="translate(-186.114 -163.12)" fill="#e1c591"/>
    <path id="Path_1351" data-name="Path 1351" d="M94.181,173.947a11.259,11.259,0,0,1,.62-3.239.993.993,0,0,1,.318-.423c.23-.17.417,0,.46.4a4.184,4.184,0,0,1,.013.785,12.165,12.165,0,0,1-.511,2.708,1.746,1.746,0,0,1-.271.54c-.29.358-.568.154-.616-.43-.009-.113-.009-.228-.013-.342" transform="translate(-91.688 -162.916)" fill="#e1c591"/>
    <path id="Path_1352" data-name="Path 1352" d="M490.975,212.314a6.044,6.044,0,0,1,.427-2.044,1.032,1.032,0,0,1,.095-.177c.173-.247.391-.152.456.206a1.521,1.521,0,0,1,.023.358,5.3,5.3,0,0,1-.453,1.933.938.938,0,0,1-.2.279c-.173.162-.3.061-.337-.257-.01-.083-.008-.17-.013-.3" transform="translate(-477.98 -200.947)" fill="#e1c591"/>
    <path id="Path_1353" data-name="Path 1353" d="M378,9.164c-.115.286-.219.554-.331.813-.016.037-.072.043-.109.041-.47-.031-.94-.072-1.411-.1a2.728,2.728,0,0,0-1.2.184.112.112,0,0,1-.118,0c.158-.2.316-.412.476-.614.094-.118.194-.223.285-.345a.456.456,0,0,1,.424-.227c.631.073,1.263.136,1.894.2a.438.438,0,0,1,.094.048" transform="translate(-364.901 -8.527)" fill="#e1c591"/>
    <path id="Path_1354" data-name="Path 1354" d="M353.747,42.907c.09-.172.174-.255.295-.263q1.147-.077,2.294-.173c.188-.016.375-.062.591-.1a.64.64,0,0,1-.319.377,2.152,2.152,0,0,1-.636.15c-.7.024-1.408.019-2.113.025a.919.919,0,0,1-.112-.015" transform="translate(-344.384 -40.553)" fill="#e1c591"/>
    <path id="Path_1355" data-name="Path 1355" d="M579.116,98.006c-.46-.77-1.008-.727-1.391.111a.917.917,0,0,1,.583-.729c.345-.078.668.166.807.617" transform="translate(-562.434 -93.196)" fill="#e1c591"/>
    <path id="Path_1356" data-name="Path 1356" d="M142.139,98.251c.163-.536.4-.826.737-.848s.573.206.763.7c-.541-.87-1.027-.822-1.5.144" transform="translate(-138.377 -93.222)" fill="#e1c591"/>
    <path id="Path_1357" data-name="Path 1357" d="M165.686,124.51c.09.026.149.115.143.272s-.071.232-.16.23-.148-.1-.149-.246.061-.243.166-.256" transform="translate(-161.14 -119.168)" fill="#e1c591"/>
    <path id="Path_1358" data-name="Path 1358" d="M599.237,124.94c-.014.226-.064.329-.164.324s-.151-.111-.147-.268.066-.251.155-.222c.063.021.116.121.156.166" transform="translate(-583.074 -119.416)" fill="#e1c591"/>
  </g>
</svg>
