<svg xmlns="http://www.w3.org/2000/svg" xmlns:xlink="http://www.w3.org/1999/xlink" width="402.413" height="381.92" viewBox="0 0 402.413 381.92">
  <defs>
    <clipPath id="clip-path">
      <rect id="Rectangle_3175" data-name="Rectangle 3175" width="402.413" height="381.92" fill="none"/>
    </clipPath>
  </defs>
  <g id="Group_3768" data-name="Group 3768" opacity="0.71">
    <g id="Group_3767" data-name="Group 3767" clip-path="url(#clip-path)">
      <path id="Path_1676" data-name="Path 1676" d="M123.556,159.658l-3.522-5.687a9.062,9.062,0,0,0-10.582-3.843c-3.435,1.159-7.341,3.108-9.886,6.341-4.2,5.33,0,9.976,23.99,7.743Z" transform="translate(-3.47 -5.292)" fill="none" stroke="#e1c591" stroke-linecap="round" stroke-linejoin="round" stroke-width="2"/>
      <path id="Path_1677" data-name="Path 1677" d="M295.465,159.658l3.522-5.687a9.062,9.062,0,0,1,10.582-3.843c3.435,1.159,7.341,3.108,9.886,6.341,4.2,5.33,0,9.976-23.99,7.743Z" transform="translate(-10.448 -5.292)" fill="none" stroke="#e1c591" stroke-linecap="round" stroke-linejoin="round" stroke-width="2"/>
      <path id="Path_1678" data-name="Path 1678" d="M133.45,162.97a184.666,184.666,0,0,1,9.94-23.848c2.625-5.07,7.212-8.178,12.265-8.3.389,0,.792-.017,1.21-.037,16.655-.458,33.648-.694,50.407-.694s33.749.235,50.5.7c.361.015.747.03,1.121.032,5.055.122,9.635,3.226,12.259,8.31a183.743,183.743,0,0,1,9.936,23.837Z" transform="translate(-4.719 -4.6)" fill="#e1c591"/>
      <path id="Path_1679" data-name="Path 1679" d="M246.057,236.434l-3.4-11.079a8.8,8.8,0,0,0-8.416-6.223H182.963a8.8,8.8,0,0,0-8.416,6.223l-3.4,11.079" transform="translate(-6.052 -7.749)" fill="#e1c591"/>
      <path id="Path_1680" data-name="Path 1680" d="M151.262,202.211h0a7.238,7.238,0,0,0-4.476-6.7c-5.639-2.322-15.967-5.838-27.23-6.074a7.352,7.352,0,0,0-7.466,7.535,15.346,15.346,0,0,0,3.34,9.04,7.063,7.063,0,0,0,5.4,2.687l22.94.765a7.253,7.253,0,0,0,7.5-7.249" transform="translate(-3.964 -6.699)" fill="#e1c591"/>
      <path id="Path_1681" data-name="Path 1681" d="M267.255,202.211h0a7.238,7.238,0,0,1,4.476-6.7c5.64-2.322,15.967-5.838,27.23-6.074a7.352,7.352,0,0,1,7.466,7.535,15.34,15.34,0,0,1-3.34,9.04,7.063,7.063,0,0,1-5.4,2.687l-22.941.765a7.253,7.253,0,0,1-7.5-7.249" transform="translate(-9.45 -6.699)" fill="#e1c591"/>
      <path id="Path_1682" data-name="Path 1682" d="M138.208,233.018H113.93s-1.953,17.022,12.139,16.325" transform="translate(-4.025 -8.24)" fill="none" stroke="#e1c591" stroke-linecap="round" stroke-linejoin="round" stroke-width="2"/>
      <path id="Path_1683" data-name="Path 1683" d="M151.262,202.211h0a7.238,7.238,0,0,0-4.476-6.7c-5.639-2.322-15.967-5.838-27.23-6.074a7.352,7.352,0,0,0-7.466,7.535,15.346,15.346,0,0,0,3.34,9.04,7.063,7.063,0,0,0,5.4,2.687l22.94.765A7.253,7.253,0,0,0,151.262,202.211Z" transform="translate(-3.964 -6.699)" fill="none" stroke="#e1c591" stroke-linecap="round" stroke-linejoin="round" stroke-width="2"/>
      <path id="Path_1684" data-name="Path 1684" d="M135.076,262.361h0a61.4,61.4,0,0,1-22.617-4.318l-.372-.148" transform="translate(-3.964 -9.12)" fill="none" stroke="#e1c591" stroke-linecap="round" stroke-linejoin="round" stroke-width="2"/>
      <path id="Path_1685" data-name="Path 1685" d="M309.327,249.982v13.658a5.876,5.876,0,0,1-5.876,5.876H283.387a5.876,5.876,0,0,1-5.876-5.876v-6.119H134.641v6.119a5.876,5.876,0,0,1-5.876,5.876H108.7a5.876,5.876,0,0,1-5.876-5.876V249.982c-3.06-16.916-3.294-42.7-3.19-55.372a19.339,19.339,0,0,1,5.169-13L121.944,163.2c5.209-14.677,10.249-24.639,14.156-31.112a21.829,21.829,0,0,1,18.284-10.509c.321-.006.659-.013,1.011-.021q50.668-1.191,101.357,0c.355.009.7.015,1.019.021a21.792,21.792,0,0,1,18.271,10.509c3.919,6.473,8.946,16.435,14.169,31.112l17.124,18.414a19.288,19.288,0,0,1,5.183,13C312.608,207.281,312.386,233.067,309.327,249.982Z" transform="translate(-3.523 -4.277)" fill="none" stroke="#e1c591" stroke-linecap="round" stroke-linejoin="round" stroke-width="2"/>
      <path id="Path_1686" data-name="Path 1686" d="M280.852,233.018H305.13s1.953,17.022-12.139,16.325" transform="translate(-9.931 -8.24)" fill="none" stroke="#e1c591" stroke-linecap="round" stroke-linejoin="round" stroke-width="2"/>
      <path id="Path_1687" data-name="Path 1687" d="M267.255,202.211h0a7.238,7.238,0,0,1,4.476-6.7c5.64-2.322,15.967-5.838,27.23-6.074a7.352,7.352,0,0,1,7.466,7.535,15.34,15.34,0,0,1-3.34,9.04,7.063,7.063,0,0,1-5.4,2.687l-22.941.765A7.253,7.253,0,0,1,267.255,202.211Z" transform="translate(-9.45 -6.699)" fill="none" stroke="#e1c591" stroke-linecap="round" stroke-linejoin="round" stroke-width="2"/>
      <path id="Path_1688" data-name="Path 1688" d="M284.034,262.361h0a61.4,61.4,0,0,0,22.617-4.318l.372-.148" transform="translate(-10.044 -9.12)" fill="none" stroke="#e1c591" stroke-linecap="round" stroke-linejoin="round" stroke-width="2"/>
      <line id="Line_31" data-name="Line 31" x2="168.266" transform="translate(118.421 158.922)" fill="none" stroke="#e1c591" stroke-linecap="round" stroke-linejoin="round" stroke-width="2"/>
      <path id="Path_1689" data-name="Path 1689" d="M246.057,236.434l-3.4-11.079a8.8,8.8,0,0,0-8.416-6.223H182.963a8.8,8.8,0,0,0-8.416,6.223l-3.4,11.079" transform="translate(-6.052 -7.749)" fill="none" stroke="#e1c591" stroke-linecap="round" stroke-linejoin="round" stroke-width="2"/>
      <path id="Path_1690" data-name="Path 1690" d="M104.973,52.156S67.181,72.867,57.685,64.243c-11.124-10.1,9.56-31.267,35.371-45.039C154.3-13.476,210.4,7.817,210.4,7.817l18.847,1.628" transform="translate(-1.931 -0.035)" fill="none" stroke="#e1c591" stroke-linecap="round" stroke-linejoin="round" stroke-width="2"/>
      <path id="Path_1691" data-name="Path 1691" d="M158.373,24.956a118.968,118.968,0,0,1-22.7,4.517c-13.332,1.406-35.16,2.233-33.387,16.941s35.833,9.468,45.621,13.879c8.633,3.891,24.692,15.91,45.96,11.141a52.5,52.5,0,0,1,24.745.24l.205.054" transform="translate(-3.613 -0.882)" fill="none" stroke="#e1c591" stroke-linecap="round" stroke-linejoin="round" stroke-width="2"/>
      <path id="Path_1692" data-name="Path 1692" d="M95.123,59.665S83.384,72.7,89.72,81.107c5.653,7.5,16.676,2.805,24.92-8.282C123.507,60.9,131.9,59.234,131.9,59.234" transform="translate(-3.106 -2.095)" fill="none" stroke="#e1c591" stroke-linecap="round" stroke-linejoin="round" stroke-width="2"/>
      <path id="Path_1693" data-name="Path 1693" d="M359.693,15.761S278.7-2.016,227,1.52a14.994,14.994,0,0,0-12.889,9.238,122.13,122.13,0,0,0-8.1,56.97A17.548,17.548,0,0,0,221.62,83.671c10.657,1.114,26.721,3.048,44.744,6.093A80.091,80.091,0,0,0,359.693,15.761Z" transform="translate(-7.266 -0.037)" fill="#e1c591"/>
      <path id="Path_1694" data-name="Path 1694" d="M238.873,85.687c-6.629-.859-12.489-1.523-17.255-2.018A17.551,17.551,0,0,1,206,67.728a122.124,122.124,0,0,1,8.1-56.961,15.01,15.01,0,0,1,12.9-9.245c6.042-.418,12.489-.534,19.157-.43,0,0-23.493,42.9-7.293,84.595" transform="translate(-7.266 -0.037)" fill="#e8e7fd"/>
      <path id="Path_1695" data-name="Path 1695" d="M359.693,15.761S278.709-2.015,227.006,1.519a15.006,15.006,0,0,0-12.9,9.248,122.105,122.105,0,0,0-8.1,56.961A17.548,17.548,0,0,0,221.62,83.671" transform="translate(-7.266 -0.037)" fill="none" stroke="#e1c591" stroke-linecap="round" stroke-linejoin="round" stroke-width="2"/>
      <path id="Path_1696" data-name="Path 1696" d="M247.174,1.1s-23.492,42.887-7.286,84.59" transform="translate(-8.281 -0.039)" fill="none" stroke="#e1c591" stroke-linecap="round" stroke-linejoin="round" stroke-width="2"/>
      <path id="Path_1697" data-name="Path 1697" d="M229,18.838a2.955,2.955,0,1,0-2.955,2.955A2.955,2.955,0,0,0,229,18.838Z" transform="translate(-7.889 -0.562)" fill="none" stroke="#e1c591" stroke-linecap="round" stroke-linejoin="round" stroke-width="2"/>
      <path id="Path_1698" data-name="Path 1698" d="M308.578,341.369s37.792-20.711,47.288-12.087c11.124,10.1-9.56,31.267-35.371,45.039C259.248,407,203.151,385.708,203.151,385.708L184.3,384.079" transform="translate(-6.517 -11.57)" fill="none" stroke="#e1c591" stroke-linecap="round" stroke-linejoin="round" stroke-width="2"/>
      <path id="Path_1699" data-name="Path 1699" d="M257.3,369.219a118.966,118.966,0,0,1,22.7-4.517c13.332-1.406,35.16-2.233,33.387-16.941s-35.833-9.468-45.621-13.879c-8.633-3.891-24.692-15.91-45.96-11.141a52.5,52.5,0,0,1-24.745-.239l-.205-.054" transform="translate(-6.961 -11.374)" fill="none" stroke="#e1c591" stroke-linecap="round" stroke-linejoin="round" stroke-width="2"/>
      <path id="Path_1700" data-name="Path 1700" d="M323.215,335.318s11.739-13.036,5.4-21.442c-5.653-7.5-16.676-2.805-24.92,8.283-8.867,11.926-17.264,13.59-17.264,13.59" transform="translate(-10.129 -10.97)" fill="none" stroke="#e1c591" stroke-linecap="round" stroke-linejoin="round" stroke-width="2"/>
      <path id="Path_1701" data-name="Path 1701" d="M54.607,376.865s80.993,17.777,132.7,14.241a14.991,14.991,0,0,0,12.888-9.238,122.114,122.114,0,0,0,8.1-56.97,17.548,17.548,0,0,0-15.613-15.944c-10.657-1.114-26.721-3.048-44.744-6.093A80.091,80.091,0,0,0,54.607,376.865Z" transform="translate(-1.931 -10.669)" fill="#e1c591"/>
      <path id="Path_1702" data-name="Path 1702" d="M179.589,307.131c6.628.86,12.489,1.523,17.255,2.018a17.551,17.551,0,0,1,15.615,15.941,122.124,122.124,0,0,1-8.1,56.961,15.013,15.013,0,0,1-12.9,9.246c-6.042.417-12.489.533-19.157.429,0,0,23.493-42.9,7.293-84.595" transform="translate(-6.093 -10.86)" fill="#e8e7fd"/>
      <path id="Path_1703" data-name="Path 1703" d="M54.607,377.13S135.59,394.9,187.294,391.372a15.006,15.006,0,0,0,12.9-9.248,122.106,122.106,0,0,0,8.1-56.961,17.548,17.548,0,0,0-15.613-15.944" transform="translate(-1.931 -10.934)" fill="none" stroke="#e1c591" stroke-linecap="round" stroke-linejoin="round" stroke-width="2"/>
      <path id="Path_1704" data-name="Path 1704" d="M172.3,391.72s23.492-42.887,7.286-84.59" transform="translate(-6.093 -10.86)" fill="none" stroke="#e1c591" stroke-linecap="round" stroke-linejoin="round" stroke-width="2"/>
      <path id="Path_1705" data-name="Path 1705" d="M190.734,376.866a2.955,2.955,0,1,0,2.955-2.955A2.955,2.955,0,0,0,190.734,376.866Z" transform="translate(-6.745 -13.222)" fill="none" stroke="#e1c591" stroke-linecap="round" stroke-linejoin="round" stroke-width="2"/>
      <path id="Path_1706" data-name="Path 1706" d="M66.843,300.849s-69.775-106.656,0-213.608" transform="translate(-1.267 -3.085)" fill="none" stroke="#e1c591" stroke-linecap="round" stroke-linejoin="round" stroke-width="2"/>
      <path id="Path_1707" data-name="Path 1707" d="M9.968,206.673c-1.65-23.315.482-51.4,12.474-79.5" transform="translate(-0.335 -4.497)" fill="none" stroke="#e1c591" stroke-linecap="round" stroke-linejoin="round" stroke-width="2"/>
      <path id="Path_1708" data-name="Path 1708" d="M22.538,267.326s-6.561-15.338-10.351-38.769" transform="translate(-0.431 -8.082)" fill="none" stroke="#e1c591" stroke-linecap="round" stroke-linejoin="round" stroke-width="2"/>
      <path id="Path_1709" data-name="Path 1709" d="M351.972,300.849s69.775-106.656,0-213.608" transform="translate(-12.446 -3.085)" fill="none" stroke="#e1c591" stroke-linecap="round" stroke-linejoin="round" stroke-width="2"/>
      <path id="Path_1710" data-name="Path 1710" d="M405.264,152.084a157.329,157.329,0,0,0-8.228-24.907" transform="translate(-14.04 -4.497)" fill="none" stroke="#e1c591" stroke-linecap="round" stroke-linejoin="round" stroke-width="2"/>
      <path id="Path_1711" data-name="Path 1711" d="M408.584,171.767c6.511,51.319-11.548,93.551-11.548,93.551" transform="translate(-14.04 -6.074)" fill="none" stroke="#e1c591" stroke-linecap="round" stroke-linejoin="round" stroke-width="2"/>
      <path id="Path_1712" data-name="Path 1712" d="M46.9,164.41a9.228,9.228,0,1,0-9.228,9.228A9.228,9.228,0,0,0,46.9,164.41" transform="translate(-1.006 -5.487)" fill="#e1c591"/>
      <circle id="Ellipse_35" data-name="Ellipse 35" cx="9.228" cy="9.228" r="9.228" transform="translate(0.965 202.155)" fill="none" stroke="#e1c591" stroke-linecap="round" stroke-linejoin="round" stroke-width="2"/>
      <circle id="Ellipse_36" data-name="Ellipse 36" cx="9.228" cy="9.228" r="9.228" transform="translate(381.634 149.127) rotate(-9.217)" fill="none" stroke="#e1c591" stroke-linecap="round" stroke-linejoin="round" stroke-width="2"/>
      <path id="Path_1713" data-name="Path 1713" d="M381.107,262.187a9.228,9.228,0,1,0-9.228,9.228,9.228,9.228,0,0,0,9.228-9.228" transform="translate(-12.824 -8.945)" fill="#e1c591"/>
    </g>
  </g>
</svg>
