<svg id="Group_3733" data-name="Group 3733" xmlns="http://www.w3.org/2000/svg" xmlns:xlink="http://www.w3.org/1999/xlink" width="18" height="18.437" viewBox="0 0 18 18.437">
  <defs>
    <clipPath id="clip-path">
      <rect id="Rectangle_3141" data-name="Rectangle 3141" width="18" height="18.436" fill="#5e5e5e"/>
    </clipPath>
  </defs>
  <g id="Group_3732" data-name="Group 3732" clip-path="url(#clip-path)">
    <path id="Path_1582" data-name="Path 1582" d="M4.645,1.649c0-.408,0-.772,0-1.136C4.649.2,4.819,0,5.072,0s.423.2.426.507c0,.371,0,.742,0,1.123h6.995c0-.394-.008-.774,0-1.154s.328-.6.606-.419a.6.6,0,0,1,.233.4c.032.378.011.761.011,1.171.11,0,.2.013.3.013.7,0,1.4,0,2.106,0A2.127,2.127,0,0,1,18,3.887c.008,1.5,0,3,0,4.505q0,3.892,0,7.784a2.119,2.119,0,0,1-1.572,2.174,2.732,2.732,0,0,1-.684.082q-6.744.007-13.489,0A2.131,2.131,0,0,1,0,16.2Q0,10.04,0,3.882A2.129,2.129,0,0,1,2.252,1.649c.788,0,1.577,0,2.393,0M.854,6.729V7.04c0,3.021.018,6.043-.011,9.064a1.4,1.4,0,0,0,1.483,1.487c4.443-.019,8.886-.009,13.329-.009a1.313,1.313,0,0,0,1.49-1.489q0-4.519,0-9.037V6.729Zm.007-.89H17.143c0-.7.012-1.371,0-2.046A1.264,1.264,0,0,0,15.808,2.5c-.746,0-1.492,0-2.238,0-.068,0-.135.012-.224.02,0,.379.007.741,0,1.1a.412.412,0,0,1-.535.422.431.431,0,0,1-.314-.469c0-.352,0-.7,0-1.062H5.5c0,.361,0,.705,0,1.05,0,.314-.166.5-.429.5s-.42-.188-.423-.5c0-.344,0-.688,0-1.048-.912,0-1.8-.031-2.683.011a1.184,1.184,0,0,0-1.094,1.1C.838,4.355.861,5.092.861,5.839" transform="translate(0 0)" fill="#5e5e5e"/>
    <path id="Path_1583" data-name="Path 1583" d="M150.386,178.484a5.348,5.348,0,0,1,.767.052,1.626,1.626,0,0,1-.2,3.209,5.841,5.841,0,0,1-1.325-.035A1.6,1.6,0,0,1,148.318,180a1.629,1.629,0,0,1,1.589-1.5c.16,0,.319,0,.479,0v-.015m.012.869c-.16,0-.319-.006-.479,0a.773.773,0,0,0-.018,1.545,8.3,8.3,0,0,0,.957,0,.773.773,0,0,0-.035-1.545c-.142-.006-.284,0-.426,0" transform="translate(-137.748 -165.77)" fill="#5e5e5e"/>
    <path id="Path_1584" data-name="Path 1584" d="M48.517,178.387a5.492,5.492,0,0,1,.816.078,1.623,1.623,0,0,1-.269,3.191,5.915,5.915,0,0,1-1.324-.038,1.592,1.592,0,0,1-1.3-1.747,1.625,1.625,0,0,1,1.592-1.461c.159,0,.319,0,.479,0l0-.022m-.041,2.426h0c.16,0,.32.008.479,0a.774.774,0,0,0,.746-.782.759.759,0,0,0-.756-.765c-.3-.01-.6-.01-.9,0a.76.76,0,0,0-.746.748.776.776,0,0,0,.731.8c.15.011.3,0,.452,0" transform="translate(-43.13 -165.68)" fill="#5e5e5e"/>
    <path id="Path_1585" data-name="Path 1585" d="M48.494,120.9a5.864,5.864,0,0,1-.992-.152,1.615,1.615,0,0,1,.306-3.118,5.954,5.954,0,0,1,1.354,0,1.582,1.582,0,0,1,1.385,1.678,1.612,1.612,0,0,1-1.488,1.54c-.185.016-.373,0-.559,0l-.006.053m-.009-.884a5.6,5.6,0,0,0,.571-.031.753.753,0,0,0,.639-.739.718.718,0,0,0-.6-.763,5.615,5.615,0,0,0-1.19,0,.726.726,0,0,0-.614.78.76.76,0,0,0,.654.727c.174.025.353.02.543.028" transform="translate(-43.124 -109.216)" fill="#5e5e5e"/>
    <path id="Path_1586" data-name="Path 1586" d="M150.373,120.9a5.867,5.867,0,0,1-.991-.151,1.615,1.615,0,0,1,.321-3.122,5.921,5.921,0,0,1,1.351,0,1.58,1.58,0,0,1,1.373,1.657,1.608,1.608,0,0,1-1.464,1.556c-.193.018-.389,0-.584,0l-.005.055m-.006-2.463a5.062,5.062,0,0,0-.553.031.766.766,0,0,0-.65.76.753.753,0,0,0,.679.759,6.415,6.415,0,0,0,1.061,0,.738.738,0,0,0,.671-.736.753.753,0,0,0-.648-.785,5.194,5.194,0,0,0-.561-.03" transform="translate(-137.743 -109.212)" fill="#5e5e5e"/>
  </g>
</svg>
