<svg id="Group_3663" data-name="Group 3663" xmlns="http://www.w3.org/2000/svg" xmlns:xlink="http://www.w3.org/1999/xlink" width="21" height="21.011" viewBox="0 0 21 21.011">
  <defs>
    <clipPath id="clip-path">
      <rect id="Rectangle_3069" data-name="Rectangle 3069" width="21" height="21.011" fill="#606060"/>
    </clipPath>
  </defs>
  <g id="Group_3662" data-name="Group 3662" clip-path="url(#clip-path)">
    <path id="Path_1338" data-name="Path 1338" d="M9.842,0h1.313c.053.011.1.026.158.034.539.084,1.086.133,1.616.255a10.481,10.481,0,0,1,7.911,8.4c.064.383.107.769.159,1.154v1.313a1.025,1.025,0,0,0-.031.118c-.07.486-.111.978-.213,1.458A10.5,10.5,0,1,1,8.689.159C9.071.094,9.458.052,9.842,0m9.844,10.495a9.188,9.188,0,1,0-9.193,9.194,9.2,9.2,0,0,0,9.193-9.194" transform="translate(0)" fill="#606060"/>
    <path id="Path_1339" data-name="Path 1339" d="M139.985,73.247c0-.236,0-.468,0-.7a.656.656,0,1,1,1.311.007c0,.225,0,.451,0,.69.065.021.127.043.19.062a2.965,2.965,0,0,1,2.1,2.738.659.659,0,1,1-1.312.045,1.64,1.64,0,1,0-1.617,1.688,2.858,2.858,0,0,1,2.678,1.774,2.942,2.942,0,0,1-1.842,4l-.2.062c0,.237,0,.468,0,.7a.656.656,0,1,1-1.311-.009c0-.225,0-.451,0-.66a7.692,7.692,0,0,1-.859-.4,2.875,2.875,0,0,1-1.434-2.434.657.657,0,0,1,.64-.745.664.664,0,0,1,.67.7,1.64,1.64,0,1,0,1.616-1.686,2.951,2.951,0,0,1-.795-5.787c.052-.014.1-.034.162-.055" transform="translate(-130.142 -67.931)" fill="#606060"/>
  </g>
</svg>
