<svg id="Group_3712" data-name="Group 3712" xmlns="http://www.w3.org/2000/svg" xmlns:xlink="http://www.w3.org/1999/xlink" width="39.08" height="28.824" viewBox="0 0 39.08 28.824">
  <defs>
    <clipPath id="clip-path">
      <rect id="Rectangle_3109" data-name="Rectangle 3109" width="39.08" height="28.824" fill="#1b315a"/>
    </clipPath>
  </defs>
  <g id="Group_3711" data-name="Group 3711" clip-path="url(#clip-path)">
    <path id="Path_1409" data-name="Path 1409" d="M0,72.192c1.617.979,3.238,1.954,4.852,2.939q6.634,4.047,13.26,8.107a2.456,2.456,0,0,0,2.813-.009q8.853-5.419,17.725-10.806c.117-.071.237-.138.416-.242v.446c0,4.756-.041,9.512.015,14.267a5.866,5.866,0,0,1-5.979,5.97q-10.889-.022-21.778,0c-1.818,0-3.636.011-5.454,0A5.782,5.782,0,0,1,.121,88.274L0,87.76V72.192" transform="translate(0 -64.039)" fill="#1b315a"/>
    <path id="Path_1410" data-name="Path 1410" d="M21.376,0q6.79,0,13.58,0a5.769,5.769,0,0,1,5.666,4.143.438.438,0,0,1-.227.6q-9.356,5.7-18.694,11.42a.5.5,0,0,1-.611.008Q11.713,10.445,2.321,4.736A.418.418,0,0,1,2.1,4.161,5.772,5.772,0,0,1,7.759,0q6.809-.009,13.618,0" transform="translate(-1.833 0)" fill="#1b315a"/>
  </g>
</svg>
