<svg xmlns="http://www.w3.org/2000/svg" xmlns:xlink="http://www.w3.org/1999/xlink" width="24" height="24" viewBox="0 0 24 24">
  <defs>
    <clipPath id="clip-path">
      <rect id="Rectangle_3218" data-name="Rectangle 3218" width="24" height="24" fill="#1b3159"/>
    </clipPath>
  </defs>
  <g id="svgexport-17" clip-path="url(#clip-path)">
    <path id="Path_1885" data-name="Path 1885" d="M11.507,2.13a1,1,0,0,1,.988,0A14.33,14.33,0,0,0,19.973,4,1,1,0,0,1,21,5v7a9.286,9.286,0,0,1-4.47,8.348,11.951,11.951,0,0,1-3,1.33,9.578,9.578,0,0,1-1.406.314,1,1,0,0,1-.248,0,9.578,9.578,0,0,1-1.406-.313,11.992,11.992,0,0,1-3-1.331A9.286,9.286,0,0,1,3,12V5A1,1,0,0,1,4.025,4a14.45,14.45,0,0,0,7.482-1.87ZM12,4.136l-.3.153a16.45,16.45,0,0,1-6.392,1.69L5,5.991V12a7.3,7.3,0,0,0,3.3,6.506l.226.146a10.052,10.052,0,0,0,2.5,1.107,9.333,9.333,0,0,0,.91.22l.06.01.176-.032q.139-.028.277-.061l.332-.085.185-.052a10.052,10.052,0,0,0,2.5-1.107A7.3,7.3,0,0,0,19,12V5.994l-.311-.013a16.33,16.33,0,0,1-6.4-1.692L12,4.136ZM12,7a1,1,0,0,1,.993.883L13,8v3h3a1,1,0,0,1,.117,1.993L16,13H13v3a1,1,0,0,1-1.993.117L11,16V13H8a1,1,0,0,1-.117-1.993L8,11h3V8A1,1,0,0,1,12,7Z" fill="#1b3159" fill-rule="evenodd"/>
  </g>
</svg>
