<svg xmlns="http://www.w3.org/2000/svg" width="39.467" height="39.467" viewBox="0 0 39.467 39.467">
  <g id="Group_3930" data-name="Group 3930" transform="translate(-1455.59 -5526.505)">
    <path id="bg-white" d="M19.733,0A19.733,19.733,0,1,1,0,19.733,19.733,19.733,0,0,1,19.733,0Z" transform="translate(1455.59 5526.505)" fill="#eee"/>
    <path id="Combined_Shape" data-name="Combined Shape" d="M8.628,17.254c-2.8,0-3.138-.011-4.252-.062a5.811,5.811,0,0,1-1.955-.363,3.23,3.23,0,0,1-1.21-.787,3.263,3.263,0,0,1-.788-1.209,5.812,5.812,0,0,1-.362-1.955C.011,11.784,0,11.454,0,8.626S.011,5.469.061,4.375A5.812,5.812,0,0,1,.423,2.42a3.265,3.265,0,0,1,.788-1.21A3.247,3.247,0,0,1,2.421.422,5.832,5.832,0,0,1,4.376.059C5.359.015,5.729,0,7.683,0l.945,0c2.828,0,3.158.011,4.252.061a5.874,5.874,0,0,1,1.955.362,3.251,3.251,0,0,1,1.209.788,3.247,3.247,0,0,1,.788,1.21,5.81,5.81,0,0,1,.362,1.954c.051,1.114.062,1.448.062,4.251s-.011,3.137-.062,4.251a5.809,5.809,0,0,1-.362,1.954,3.5,3.5,0,0,1-2,2,5.812,5.812,0,0,1-1.955.362C11.766,17.243,11.433,17.254,8.628,17.254Zm0-14.029a5.4,5.4,0,1,0,5.4,5.4A5.411,5.411,0,0,0,8.628,3.225Zm5.618-1.475a1.263,1.263,0,1,0,1.263,1.263A1.265,1.265,0,0,0,14.246,1.749Z" transform="translate(1467.107 5537.608)"/>
    <path id="Shape" d="M7.016,3.508A3.508,3.508,0,1,1,3.508,0h0A3.508,3.508,0,0,1,7.016,3.508Z" transform="translate(1472.227 5542.73)" fill="#eee"/>
  </g>
</svg>
