<svg xmlns="http://www.w3.org/2000/svg" xmlns:xlink="http://www.w3.org/1999/xlink" width="18" height="18" viewBox="0 0 18 18">
  <defs>
    <clipPath id="clip-path">
      <rect id="Rectangle_3214" data-name="Rectangle 3214" width="18" height="18" transform="translate(0 0.333)" fill="#e1c591"/>
    </clipPath>
  </defs>
  <g id="svgexport-15" transform="translate(0 -0.333)" clip-path="url(#clip-path)">
    <path id="Path_1883" data-name="Path 1883" d="M9.639,2l.213,0a7.636,7.636,0,1,1-.213,0Zm0,1.528-.189,0A6.111,6.111,0,0,0,9.639,15.75l.189,0A6.111,6.111,0,0,0,9.639,3.528Zm0,5.347.1,0a.715.715,0,0,1,.668.759v3.819a.764.764,0,0,1-1.528,0V9.639A.722.722,0,0,1,9.639,8.875Zm0-3.819.1,0a.715.715,0,0,1,.668.759v.764a.764.764,0,1,1-1.528,0V5.819A.722.722,0,0,1,9.639,5.056Z" transform="translate(-0.472 -0.472)" fill="#e1c591" fill-rule="evenodd"/>
  </g>
</svg>
