<svg xmlns="http://www.w3.org/2000/svg" width="21.874" height="15.131" viewBox="0 0 21.874 15.131">
  <path id="svgexport-12" d="M12.127,13.333l-9.34,6.149a.512.512,0,0,1-.52.024.5.5,0,0,1-.2-.184A.5.5,0,0,1,2,19.066V4.934a.5.5,0,0,1,.072-.257.5.5,0,0,1,.2-.184.512.512,0,0,1,.52.025l9.34,6.149V4.934a.5.5,0,0,1,.072-.257.5.5,0,0,1,.2-.184.512.512,0,0,1,.52.025l10.734,7.066a.5.5,0,0,1,.166.18.495.495,0,0,1,0,.472.5.5,0,0,1-.166.18L12.914,19.482a.512.512,0,0,1-.52.024.5.5,0,0,1-.2-.184.5.5,0,0,1-.072-.257ZM11.621,12,3.013,6V18ZM13.14,6V18l9.115-6Z" transform="translate(-2 -4.434)" fill="#1b3159"/>
</svg>
