<svg id="Group_3934" data-name="Group 3934" xmlns="http://www.w3.org/2000/svg" xmlns:xlink="http://www.w3.org/1999/xlink" width="132" height="102" viewBox="0 0 132 102">
  <defs>
    <clipPath id="clip-path">
      <rect id="Rectangle_3284" data-name="Rectangle 3284" width="132" height="102" fill="none"/>
    </clipPath>
  </defs>
  <g id="Group_3933" data-name="Group 3933" clip-path="url(#clip-path)">
    <path id="Path_2100" data-name="Path 2100" d="M96.78,14.426H8.8a8.8,8.8,0,0,0-8.8,8.8V87.745a8.8,8.8,0,0,0,8.8,8.8H96.78a8.8,8.8,0,0,0,8.8-8.8V23.224a8.8,8.8,0,0,0-8.8-8.8m2.933,73.319a2.941,2.941,0,0,1-2.933,2.932H8.8a2.94,2.94,0,0,1-2.932-2.932V23.224A2.941,2.941,0,0,1,8.8,20.291H96.78a2.943,2.943,0,0,1,2.933,2.933ZM35.193,75.28v1.467a2.206,2.206,0,0,1-2.2,2.2H19.8a2.206,2.206,0,0,1-2.2-2.2V75.28a2.206,2.206,0,0,1,2.2-2.2h13.2a2.206,2.206,0,0,1,2.2,2.2m35.193,0v1.467a2.206,2.206,0,0,1-2.2,2.2H43.258a2.207,2.207,0,0,1-2.2-2.2V75.28a2.207,2.207,0,0,1,2.2-2.2H68.186a2.206,2.206,0,0,1,2.2,2.2M89.448,26.157H74.785a4.389,4.389,0,0,0-4.4,4.4v8.8a4.389,4.389,0,0,0,4.4,4.4H89.448a4.389,4.389,0,0,0,4.4-4.4v-8.8a4.388,4.388,0,0,0-4.4-4.4m-1.467,11.73H76.251V32.022H87.982ZM47.657,67.215H37.393a2.206,2.206,0,0,1-2.2-2.2V57.684a2.206,2.206,0,0,1,2.2-2.2H47.657a2.206,2.206,0,0,1,2.2,2.2v7.332a2.206,2.206,0,0,1-2.2,2.2m5.132-2.2V57.684a2.206,2.206,0,0,1,2.2-2.2H65.254a2.206,2.206,0,0,1,2.2,2.2v7.332a2.206,2.206,0,0,1-2.2,2.2H54.989a2.206,2.206,0,0,1-2.2-2.2m-35.193,0V57.684a2.206,2.206,0,0,1,2.2-2.2H30.061a2.206,2.206,0,0,1,2.2,2.2v7.332a2.206,2.206,0,0,1-2.2,2.2H19.8a2.206,2.206,0,0,1-2.2-2.2m70.386-7.332v7.332a2.206,2.206,0,0,1-2.2,2.2h-13.2a2.206,2.206,0,0,1-2.2-2.2V57.684a2.206,2.206,0,0,1,2.2-2.2h13.2a2.206,2.206,0,0,1,2.2,2.2" transform="translate(0 5.458)" fill="#e1c591"/>
    <path id="Path_2101" data-name="Path 2101" d="M91.794,11.847l5.228,2.624,2.613,5.25a1.72,1.72,0,0,0,3.079,0l2.613-5.25,5.228-2.624a1.73,1.73,0,0,0,0-3.094l-5.228-2.624L102.715.878a1.789,1.789,0,0,0-3.079,0l-2.613,5.25L91.794,8.753a1.73,1.73,0,0,0,0,3.094m7.254-2.863a1.748,1.748,0,0,0,.78-.779l1.347-2.692,1.347,2.7a1.752,1.752,0,0,0,.78.775l2.7,1.349-2.7,1.354a1.758,1.758,0,0,0-.78.78l-1.347,2.695-1.347-2.691a1.765,1.765,0,0,0-.78-.78l-2.7-1.354Zm6.28,32.982-2.613-5.249a1.788,1.788,0,0,0-3.079,0l-2.613,5.249L91.794,44.59a1.73,1.73,0,0,0,0,3.094l5.228,2.624,2.613,5.25a1.72,1.72,0,0,0,3.079,0l2.613-5.25,5.228-2.624a1.73,1.73,0,0,0,0-3.094ZM103.3,47.524a1.761,1.761,0,0,0-.78.782L101.176,51l-1.347-2.695a1.761,1.761,0,0,0-.78-.782l-2.7-1.348,2.7-1.348a1.768,1.768,0,0,0,.78-.782l1.347-2.695,1.347,2.695a1.768,1.768,0,0,0,.78.782l2.7,1.348ZM97.73,28.218a1.784,1.784,0,0,0-.984-1.595l-12.524-6.27L77.96,7.8a1.851,1.851,0,0,0-3.184,0L68.514,20.353,55.99,26.623a1.781,1.781,0,0,0,0,3.191l12.524,6.274,6.262,12.549a1.78,1.78,0,0,0,3.184,0l6.262-12.549,12.524-6.272a1.791,1.791,0,0,0,.984-1.6" transform="translate(20.811 0)" fill="#1b3159"/>
    <path id="Path_2102" data-name="Path 2102" d="M78.581,29.432a1.562,1.562,0,0,0-.634.737l-3.923,9.157L70.1,30.169a1.562,1.562,0,0,0-.634-.737l-7.85-4.579,7.85-4.579a1.584,1.584,0,0,0,.634-.737l3.921-9.157,3.923,9.157a1.584,1.584,0,0,0,.634.737l7.848,4.579Z" transform="translate(23.315 3.928)" fill="#e1c591" fill-rule="evenodd"/>
  </g>
</svg>
