<svg id="Group_3675" data-name="Group 3675" xmlns="http://www.w3.org/2000/svg" xmlns:xlink="http://www.w3.org/1999/xlink" width="116.756" height="44" viewBox="0 0 116.756 44">
  <defs>
    <clipPath id="clip-path">
      <rect id="Rectangle_3072" data-name="Rectangle 3072" width="116.756" height="44" fill="#e1c591"/>
    </clipPath>
  </defs>
  <g id="Group_3674" data-name="Group 3674" clip-path="url(#clip-path)">
    <path id="Path_1345" data-name="Path 1345" d="M302.789,13.3H297.3l-.087-.193L312.02,6.292a5.255,5.255,0,0,1-.467.492c-1.977,1.5-3.95,3.005-5.946,4.479a1.857,1.857,0,0,1-.964.3,10.631,10.631,0,0,0-4.665,1.149,7.249,7.249,0,0,0-.628.465h3.44c0,.041,0,.082,0,.122" transform="translate(-254.095 -5.379)" fill="#e1c591"/>
    <path id="Path_1346" data-name="Path 1346" d="M279.026,11.755c1.827-.8,3.652-1.6,5.481-2.384,3-1.3,6.006-2.6,9.023-3.866a14.9,14.9,0,0,1,1.883-.524l.094.288c-.735.3-1.484.574-2.2.913-4.065,1.92-8.108,3.887-12.2,5.749a5.448,5.448,0,0,1-2.07.036q-.005-.106-.01-.212" transform="translate(-238.549 -4.258)" fill="#e1c591"/>
    <path id="Path_1347" data-name="Path 1347" d="M26.576,113.351c.634-.046,1.181-.055,1.321.788.127.764.674,1.05,1.469.906-1.368.566-2.3.09-2.79-1.693" transform="translate(-22.721 -96.893)" fill="#e1c591"/>
    <path id="Path_1348" data-name="Path 1348" d="M109.421,33.227a.725.725,0,0,1-.038-.963c2.044-2.961,4.066-5.937,6.094-8.909.4-.589.8-1.181,1.278-1.887h-17.8q-.007-.1-.014-.2c1.021-.1,2.041-.244,3.065-.293,1.06-.051,2.125-.006,3.188-.014.951-.007,1.154-.214,1.216-1.344h-2.723l-.05-.195A11.88,11.88,0,0,0,107.39,14.1c.053-.136.242-.213.339-.34.176-.232.447-.469.472-.724.093-.944.087-1.9.147-2.846.061-.969-.058-1.174-1.028-1.263a23.385,23.385,0,0,1-3.014-.176c-2.917-.664-5.806-1.45-8.7-2.2A1.2,1.2,0,0,1,95.02,6.3a2.547,2.547,0,0,0-1.781-.666,9.163,9.163,0,0,1-1.327-.264c-.452-.126-.881-.336-1.334-.458s-.942-.15-1.4-.28c-.585-.166-1.147-.411-1.73-.586-.408-.122-.839-.164-1.249-.279-.5-.14-.983-.341-1.485-.474-.482-.127-.986-.171-1.466-.305-.523-.146-1.015-.424-1.544-.516a2.94,2.94,0,0,1-1.8-.607,1.765,1.765,0,0,0-.946-.287c-1.784-.247-3.573-.459-5.357-.709A76.567,76.567,0,0,0,60.178.039c-.919.034-1.833.178-2.749.271l.009.154L58.7.878c-.234.221-.36.365-.509.478q-3.882,2.958-7.774,5.9c-.51.384-1.051.961-1.611,1a38.728,38.728,0,0,1-5.206.01c-1.774-.11-3.532-.512-5.3-.581C34.7,7.553,31.1,7.481,27.509,7.518A29.261,29.261,0,0,0,17.047,9.2c-2.793,1.1-5.428,2.6-8.12,3.944-1.086.544-2.135,1.161-3.2,1.745.894-1.455,2.742-1.455,3.8-2.654-2.132.822-4.362,1.468-6.11,3.413.516.075.817.133,1.121.16a2.933,2.933,0,0,1,2.535,1.536c.7,1.276.528,1.641-.934,1.7-.034,0-.065.058-.238.223l3.727,2.221H.029c.146.239.213.362.292.477q3.42,5.015,6.847,10.026c.3.437.508.764.113,1.329C5,36.581,2.765,39.882.517,43.172.359,43.4.22,43.647,0,44H116.728c-.207-.345-.337-.589-.492-.816q-3.4-4.982-6.816-9.957M75.415,5.785V1.8l.046,0V5.788l-.046,0m-22.686.4q3.1-2.437,6.241-4.81A2.251,2.251,0,0,1,60.159.978,71.265,71.265,0,0,1,71.7,1.652a1.974,1.974,0,0,0,.861-.035l-4.049-.493c0-.051.008-.1.011-.153l4.962.307A1.541,1.541,0,0,1,72.028,2.6l.506-.6-.028-.079c-.154.105-.387.177-.449.321a16.647,16.647,0,0,1-3.717,5.032c.437-.383.869-.6,1.358.107a1.308,1.308,0,0,1-1.525-.025c.176.87.834.327,1.266.4.191.034.422-.148.763-.117l-.313.515L66.975,8.3l-.048-.178.71-.431a37.728,37.728,0,0,1-4.346.6c-4.127.1-8.257.08-12.386.1-.16,0-.32-.024-.683-.054.922-.8,1.688-1.509,2.507-2.154M71.86,4.917l-.06.145-1.17-.069.492-.607.738.531M70.545,6.592H69.407c.443-.731.57-.728,1.138,0M19.741,39.52a5.963,5.963,0,0,1-4.23,1.78,2.838,2.838,0,0,1-2.894-1.778,12.194,12.194,0,0,1-.876-3.407A12.483,12.483,0,0,1,15.4,25.678a5.914,5.914,0,0,1,4.22-1.8A3.092,3.092,0,0,1,22.663,25.8a10.591,10.591,0,0,1,.846,4.528,12.625,12.625,0,0,1-3.768,9.192m1.746-28.665c3.9-1,7.485-.417,10.414,2.584a9.842,9.842,0,0,1,2.6,5.224c.093.505.25.809.8.828l-.663.109V21.4H32.658a8.311,8.311,0,0,0-1.987-8.225,8.057,8.057,0,0,0-5.966-2.521A8.381,8.381,0,0,0,16.771,21.4H15.523c.107-1.378.153-2.727.328-4.06a7.139,7.139,0,0,1,5.635-6.488m-3.465,1.31c2.349-3.057,9.542-3.992,13.11.07a10.9,10.9,0,0,0-13.11-.07m9.215,7.874c.19-.4.057-1.137.854-.975.154.031.393.328.365.451a13.2,13.2,0,0,1-.5,1.465c-.4-.335-1.009-.332-.716-.942m-.019,1.076-.144.4-.961-.3c.05-.145.136-.419.147-.416.324.087.641.2.958.312m.413-3.806.233.081.343.962c-.438.231-.9.225-1.1-.156-.084-.16.332-.584.521-.888m-.647-.1c-1.256-.837-1.256-.837-.769-1.757L27.8,16.577l-.818.636m.349-1.337a4.146,4.146,0,0,0-4.749-.164c-1.688,1.251-1.949,2.84-.9,5.66a1.5,1.5,0,0,1-1.9-1.316,5.2,5.2,0,1,1,10.2-1.975,3.661,3.661,0,0,1-.554,2.868c-.435.6-.895.463-1.442.47a4.147,4.147,0,0,0-.651-5.542M25.6,15.6l-.707.99-.682-.789.14-.2Zm-3.946,2.979L21.52,18.4l.421-1.242.723,1-1.008.422m.026,2.3-.554-1.778c.576-.039,1.01-.29,1.186.38.151.576.505,1.164-.632,1.4m.255-4.255c.471-.372.849-.705,1.268-.974a.521.521,0,0,1,.485.156.82.82,0,0,1-.015.677,5.472,5.472,0,0,1-.954.715l-.784-.574m2.145,4.378c-.057.1-.332.106-.491.077-.052-.01-.074-.273-.078-.421-.012-.43-.009-.861-.01-1.291,0-.283,0-.566,0-.849-.006-.382-.031-.763-.024-1.144a4.112,4.112,0,0,1,.089-.58,4.732,4.732,0,0,1,.519.2c.344.178.676.377,1.016.561.25.135.587.2.744.4a1.382,1.382,0,0,0,1.144.614c.142,0,.281.171.582.369-.337.166-.512.24-.675.334q-.47.27-.929.56c-.2.126-.376.335-.591.386a1.812,1.812,0,0,0-1.294.785m9.76,18.488a5.868,5.868,0,0,1-4.074,1.8,3.126,3.126,0,0,1-3.306-2.183,10.921,10.921,0,0,1-.715-4.836,12.424,12.424,0,0,1,3.75-8.62,5.953,5.953,0,0,1,4.3-1.775,3.048,3.048,0,0,1,2.855,1.763c.616,1.167.919,2.725.92,5.571a12.215,12.215,0,0,1-3.734,8.284M48.426,26.778q-1.678,6.182-3.361,12.364c-.222.816-.142.918.722.928.623.007,1.246,0,1.882,0,.125.543.017.825-.52.824q-3.692-.005-7.384-.009a1.127,1.127,0,0,1-.271-.069c-.105-.57.146-.771.67-.748.409.018.82,0,1.23,0,1.027-.006,1.153-.1,1.416-1.062q1.387-5.1,2.766-10.2c.111-.409.2-.823.309-1.25-1.015.24-1.947.463-2.884.669a2.463,2.463,0,0,1-.12-.329c.809-.333,1.6-.633,2.362-.977a6.713,6.713,0,0,0,2.774-2.257c.176-.247.558-.348.846-.516l.2.212c-.211.806-.416,1.614-.634,2.418m-6.489-9.012c.015,1.688-.279,1.594,1.581,1.531,1.363-.046,2.728-.009,4.092.077H40.4c1.408-.1,1.407-.1,1.407-1.516,0-1.686,0-3.372.13-5.057,0,1.655-.012,3.31,0,4.964M43.292,9.6c-.977,0-1.93-.166-2.9-.2-1.012-.039-2.021-.159-3.032-.241-1.035-.084-2.069-.172-3.105-.244-1.012-.07-2.024-.157-3.037-.174-5.315-.086-10.571.3-15.616,2.156-1.378.508-2.732,1.08-4.1,1.613a.988.988,0,0,1-.74.006c.763-.382,1.519-.778,2.291-1.142A37.362,37.362,0,0,1,32.021,8.041c3.731.267,7.472.4,11.211.543,3.833.148,7.669.326,11.5.329,4.949,0,9.9-.15,14.847-.244.424-.008.847-.075,1.443-.13l-1.116-.377-.031.011.02-.017.012,0a1.918,1.918,0,0,0,.226-.085.3.3,0,0,0,.069-.049c.6-.584,1.186-1.18,1.619-1.614a3.126,3.126,0,0,0,.859.282c.85-.043,1.7-.2,2.545-.2a20.376,20.376,0,0,1,3.391.349l-3.175.738q0,.088,0,.176c9.59-1.609,19.082-1.511,28.416,1.322l-.01.3c-.384-.025-.769-.037-1.152-.077-4.2-.442-8.394-1.154-12.6-1.261-4.548-.116-9.111.311-13.666.549-1.115.058-1.11.144-1.192,1.112l-.132-.914c-.944.135-1.857.206-2.74.407a18.412,18.412,0,0,1-3.873.319c-5.964.087-11.928.165-17.893.2-2.438.014-4.876-.126-7.314-.12m50.44,1.51a14.708,14.708,0,0,0-6.062-1.23A12.508,12.508,0,0,0,81.6,11.209c2.952-2.434,9.789-1.991,12.129-.1m-29.1,7.979v-.109h7.327c0,.036,0,.072,0,.109Zm6.195.891a3.3,3.3,0,0,1-.611,1.21c-.251.242-.732.244-1.112.352l-.1-.248c.392-.543.767-1.1,1.188-1.62.1-.127.356-.133.54-.195.035.169.142.365.09.5m-18.243-.8h7.2c0,.018,0,.036,0,.054h-7.2c0-.018,0-.036,0-.054M69.1,23.8c-.451,2.176-.9,4.353-1.372,6.524-.041.188-.262.337-.4.5a1.909,1.909,0,0,1-.272-.567c-.112-1.054-.094-2.13-.3-3.164-.633-3.191-3.7-4.2-6.059-1.94a11.251,11.251,0,0,0-2.213,3.182,16.845,16.845,0,0,0-1.629,9.087c.263,2.772,2.106,3.67,4.739,2.739a7.755,7.755,0,0,0,4.388-4.58c.235-.534.494-.672.961-.3-.828,3.186-3.863,6.69-8.2,5.978a4.914,4.914,0,0,1-4-3.853,10.925,10.925,0,0,1,.959-8.082,11.884,11.884,0,0,1,4.112-4.871,9.622,9.622,0,0,1,2.765-1.2,3.971,3.971,0,0,1,4.032,1.2c.909.928,1.354.794,1.787-.468.1-.306.065-.8.722-.588a2.77,2.77,0,0,1-.021.395m9.15,17.084a1.405,1.405,0,0,1-2.346-.964c-.1-.44-.134-.893-.214-1.445-.6.7-1.085,1.322-1.631,1.892a2.588,2.588,0,0,1-2.791.7,2.414,2.414,0,0,1-1.718-2.141,8.65,8.65,0,0,1,3.246-8.279,4.149,4.149,0,0,1,1.555-.731,2.2,2.2,0,0,1,2.838,1.346c.064.125.13.249.29.554.261-1.216.572-2.241,2.1-1.6-.059.282-.112.6-.195.917-.626,2.355-1.262,4.708-1.883,7.064a5.153,5.153,0,0,0-.212,1.208,2.914,2.914,0,0,0,.243.838c.283-.093.7-.1.828-.3.609-.944,1.133-1.943,1.7-2.913a1,1,0,0,1,.6-.462,7.207,7.207,0,0,1-2.4,4.312M79.786,21.4H78.212c0-.555-.038-1.082.01-1.6.058-.629-.155-.909-.8-.829a6.714,6.714,0,0,1-.776,0c-.009-.171-.016-.322-.025-.5.065.03.115.037.128.062.287.58.805.318,1.214.271.119-.013.243-.45.271-.7.087-.79.044-1.6.2-2.376a5.841,5.841,0,0,1,3.554-4.213,13.5,13.5,0,0,1,11.63.1A6.041,6.041,0,0,1,97.2,17.005c.109,1.444.258,2.884.395,4.389H95.658c.9-3.935-.12-7.22-3.524-9.431a7.7,7.7,0,0,0-9,.1c-3.276,2.226-4.225,5.473-3.345,9.339m9.347-2.422-.2.015c.047.613.1,1.225.129,1.838,0,.108-.12.3-.206.314a.489.489,0,0,1-.416-.139,1.458,1.458,0,0,0-1.156-.741c-.254-.048-.464-.314-.7-.467-.288-.183-.589-.346-.878-.527-.18-.113-.348-.244-.522-.367.172-.119.339-.246.517-.354.309-.186.628-.355.937-.542.2-.123.382-.345.595-.38a1.759,1.759,0,0,0,1.313-.747c.058-.089.291-.1.432-.082.071.011.191.231.165.269a2.015,2.015,0,0,0-.008,1.911m-4.193-1.63.593.8-.939.448-.175-.179.266-1.01.255-.056m-.143-.784,1.534-1.113c.54.854.54.854-.743,1.78l-.79-.668m.525,3.38c.3.729-.306.692-.758,1.008l-.548-1.735c.875-.321.882-.29,1.305.727m1.057.874a4.994,4.994,0,0,1,.024.51c-.337.047-.678.057-1.019.074l-.046-.34,1.042-.245m.675-5.011.147-.193h1.29l-.757.987-.68-.795m1.622.506.37-.92,1.6,1.172-.791.679-1.177-.931m1.8,1.023.273.081.329,1.2-1.136-.383.534-.894m-.151,2.024c.121-.226.616-.253.938-.372l.18.241-.573,1.7c-1.031-.524-1.078-.573-.545-1.567M90.108,15.8a4.209,4.209,0,0,0-4.912.1,4.186,4.186,0,0,0-.61,5.476c-1.352.192-1.509.1-1.873-1.1a5.189,5.189,0,0,1,9.839-3.254,4.316,4.316,0,0,1,.087,3.273c-.456,1.088-.265,1.145-1.788,1.1a4.114,4.114,0,0,0-.744-5.6m1.873,16.687a1.32,1.32,0,0,1-1.7.525c-.537-.322-.629-.954-.245-1.659.077-.141.139-.291.208-.436l-.129-.191c-.265.154-.615.247-.779.474a10.688,10.688,0,0,0-1.254,2.023Q86.7,36.484,85.46,39.806c-.447,1.193-.534,1.294-1.966.972.062-.272.115-.548.188-.818.6-2.214,1.212-4.423,1.787-6.642a10.537,10.537,0,0,0,.319-1.993c.036-.594-.33-.781-.838-.452a2.135,2.135,0,0,0-.7.711c-.443.8-.815,1.637-1.243,2.446a2.107,2.107,0,0,1-.459.448c-.029-.205-.145-.451-.072-.61a25.439,25.439,0,0,1,1.365-2.705,3.433,3.433,0,0,1,1.192-1.122,1.333,1.333,0,0,1,2.132.976,19.935,19.935,0,0,1,.165,2.363c.356-.61.644-1.187,1.011-1.708a8.262,8.262,0,0,1,1.251-1.482,1.672,1.672,0,0,1,2.192.025,1.856,1.856,0,0,1,.2,2.273m9.422.7a.909.909,0,0,1-1.093.735,1.527,1.527,0,0,1-.95-.622c-.252-.444.007-.888.426-1.178.465-.322.519-.7.109-1.074a2.342,2.342,0,0,0-2.371-.47,1.988,1.988,0,0,0-1.56,1.628,1.485,1.485,0,0,0,.6,1.592c.764.551,1.512,1.123,2.257,1.7a2.706,2.706,0,0,1,.542,4.11,4.05,4.05,0,0,1-3.575,1.581,3.23,3.23,0,0,1-2.7-1.1,2.4,2.4,0,0,1-.3-2.883,1.089,1.089,0,0,1,1.339-.43.815.815,0,0,1,.543,1.047,1.427,1.427,0,0,1-.557.683c-.685.485-.71,1.206.041,1.6a3.619,3.619,0,0,0,3.414.12,1.883,1.883,0,0,0,.386-3.154,15.051,15.051,0,0,0-2.006-1.546c-1.686-1.058-1.516-3.605-.164-4.779,1.809-1.57,4.658-1.147,5.531.908a2.83,2.83,0,0,1,.1,1.532" transform="translate(0 0)" fill="#e1c591"/>
    <path id="Path_1349" data-name="Path 1349" d="M491.823,53.373l3.641-.611.044.236-3.636.648-.05-.273" transform="translate(-420.476 -45.108)" fill="#e1c591"/>
    <path id="Path_1350" data-name="Path 1350" d="M191.174,182.936a26.765,26.765,0,0,1,3.381-10.895,3.171,3.171,0,0,1,2.239-1.571,1.491,1.491,0,0,1,1.936,1.167,9.642,9.642,0,0,1,.17,3.141,27.61,27.61,0,0,1-2.748,8.948,5.837,5.837,0,0,1-1.466,1.846c-1.6,1.269-3.155.6-3.433-1.41-.056-.4-.054-.817-.079-1.226" transform="translate(-163.441 -145.709)" fill="#e1c591"/>
    <path id="Path_1351" data-name="Path 1351" d="M94.181,182.825a25.738,25.738,0,0,1,3.4-10.952,4.155,4.155,0,0,1,1.741-1.431,1.657,1.657,0,0,1,2.522,1.357,8.764,8.764,0,0,1,.073,2.653,27.659,27.659,0,0,1-2.8,9.155,5.6,5.6,0,0,1-1.487,1.826c-1.592,1.209-3.111.52-3.378-1.453-.052-.381-.048-.77-.07-1.155" transform="translate(-80.518 -145.526)" fill="#e1c591"/>
    <path id="Path_1352" data-name="Path 1352" d="M490.975,217.93a14.048,14.048,0,0,1,2.339-6.91,3.435,3.435,0,0,1,.52-.6,1.451,1.451,0,0,1,2.5.7,3.222,3.222,0,0,1,.125,1.211,12.634,12.634,0,0,1-2.484,6.535,3.751,3.751,0,0,1-1.077.942c-.951.549-1.641.205-1.846-.87a9.53,9.53,0,0,1-.074-1" transform="translate(-419.751 -179.497)" fill="#e1c591"/>
    <path id="Path_1353" data-name="Path 1353" d="M392.214,9.771c-.63.966-1.2,1.873-1.816,2.748-.089.126-.395.146-.6.137-2.577-.106-5.154-.244-7.731-.337a23.549,23.549,0,0,0-6.6.622.95.95,0,0,1-.644-.011c.869-.693,1.732-1.392,2.608-2.076.512-.4,1.061-.756,1.563-1.168a3.138,3.138,0,0,1,2.323-.768c3.459.248,6.922.46,10.382.691a3.188,3.188,0,0,1,.516.162" transform="translate(-320.448 -7.617)" fill="#e1c591"/>
    <path id="Path_1354" data-name="Path 1354" d="M353.747,44.182a2.1,2.1,0,0,1,1.617-.89q6.288-.26,12.573-.587c1.03-.053,2.055-.21,3.24-.335a2.953,2.953,0,0,1-1.748,1.274,18.139,18.139,0,0,1-3.486.506c-3.859.08-7.72.065-11.58.084-.163,0-.327-.027-.615-.052" transform="translate(-302.43 -36.224)" fill="#e1c591"/>
    <path id="Path_1355" data-name="Path 1355" d="M585.347,99.51c-2.521-2.6-5.526-2.459-7.622.377a3.986,3.986,0,0,1,3.2-2.464,4.188,4.188,0,0,1,4.425,2.087" transform="translate(-493.916 -83.249)" fill="#e1c591"/>
    <path id="Path_1356" data-name="Path 1356" d="M142.139,100.273a4.507,4.507,0,0,1,4.037-2.867,4.431,4.431,0,0,1,4.18,2.379c-2.966-2.943-5.627-2.779-8.217.488" transform="translate(-121.519 -83.272)" fill="#e1c591"/>
    <path id="Path_1357" data-name="Path 1357" d="M166.428,124.51a.84.84,0,0,1,.786.921.793.793,0,0,1-.878.777.776.776,0,0,1-.815-.833c0-.538.337-.822.907-.865" transform="translate(-141.509 -106.448)" fill="#e1c591"/>
    <path id="Path_1358" data-name="Path 1358" d="M600.631,125.349c-.079.765-.348,1.112-.9,1.094a.786.786,0,0,1-.807-.907.7.7,0,0,1,.847-.75c.346.07.637.409.857.562" transform="translate(-512.041 -106.669)" fill="#e1c591"/>
  </g>
</svg>
