<svg xmlns="http://www.w3.org/2000/svg" width="53.333" height="53.333" viewBox="0 0 53.333 53.333">
  <g id="Group_3937" data-name="Group 3937" transform="translate(-413.333 -1533)">
    <path id="path" d="M0,0H53.333V53.333H0Z" transform="translate(413.333 1533)" fill="none"/>
    <path id="path-2" data-name="path" d="M44.8,6.6V26.667a7.467,7.467,0,0,1-7.467,7.467H7.467A7.467,7.467,0,0,1,0,26.667V6.6A3.184,3.184,0,0,1,1.367,3.986L6.82.191A1.067,1.067,0,0,1,8.039,1.942L2.586,5.737a1.051,1.051,0,0,0-.452.845,3.206,3.206,0,0,1,2.689.26L22.4,17.185,39.977,6.843a3.193,3.193,0,0,1,2.689-.259,1.051,1.051,0,0,0-.452-.846l-5.3-3.686A1.067,1.067,0,1,1,38.136.3l5.3,3.686A3.184,3.184,0,0,1,44.8,6.6Z" transform="translate(417.778 1547.445)" fill="#e1c591"/>
    <path id="path-3" data-name="path" d="M16,25.6h0L0,16V5.333A5.339,5.339,0,0,1,5.333,0H26.666A5.339,5.339,0,0,1,32,5.333V16L16,25.6ZM9.6,14.933a1.067,1.067,0,0,0,0,2.134H22.4a1.067,1.067,0,0,0,0-2.134Zm0-6.4a1.067,1.067,0,1,0,0,2.134H22.4a1.067,1.067,0,0,0,0-2.134Z" transform="translate(424.444 1537.445)" fill="#b8d0f3"/>
  </g>
</svg>
