<svg id="Group_3830" data-name="Group 3830" xmlns="http://www.w3.org/2000/svg" xmlns:xlink="http://www.w3.org/1999/xlink" width="28.918" height="28.824" viewBox="0 0 28.918 28.824">
  <defs>
    <clipPath id="clip-path">
      <rect id="Rectangle_3110" data-name="Rectangle 3110" width="28.918" height="28.824" fill="#fff"/>
    </clipPath>
  </defs>
  <g id="Group_3713" data-name="Group 3713" clip-path="url(#clip-path)">
    <path id="Path_1411" data-name="Path 1411" d="M0,7.287A5.215,5.215,0,0,1,.294,6.53,22.412,22.412,0,0,1,3.842,1.887,16.124,16.124,0,0,1,5.554.381a1.59,1.59,0,0,1,2.23.176,1.72,1.72,0,0,1,.323.354A39.124,39.124,0,0,1,11.469,6.38c.169.35.3.718.44,1.082a1.646,1.646,0,0,1-.429,1.871c-.45.442-.939.843-1.407,1.267-.7.634-.651.329-.3,1.191a13.067,13.067,0,0,0,7.716,7.5.418.418,0,0,0,.559-.137c.452-.549.926-1.08,1.4-1.606a1.75,1.75,0,0,1,2.177-.487c1.058.494,2.115,1,3.12,1.6,1.085.64,2.114,1.376,3.158,2.084a2.108,2.108,0,0,1,.545.51c.589.841.612,1.392.094,2.06a17.977,17.977,0,0,1-1.623,1.846,27.874,27.874,0,0,1-3.953,3.13,3.11,3.11,0,0,1-2.559.44,21.075,21.075,0,0,1-7.082-3.02A33.01,33.01,0,0,1,2.359,14.167,18.656,18.656,0,0,1,.193,8.505C.12,8.132.073,7.755,0,7.287" transform="translate(0 0)" fill="#fff"/>
  </g>
</svg>
