<svg id="Group_3660" data-name="Group 3660" xmlns="http://www.w3.org/2000/svg" xmlns:xlink="http://www.w3.org/1999/xlink" width="21.75" height="29" viewBox="0 0 21.75 29">
  <defs>
    <clipPath id="clip-path">
      <rect id="Rectangle_3063" data-name="Rectangle 3063" width="21.749" height="29" fill="#404040"/>
    </clipPath>
  </defs>
  <g id="Group_3659" data-name="Group 3659" clip-path="url(#clip-path)">
    <path id="Path_1337" data-name="Path 1337" d="M10.651,29a8.074,8.074,0,0,1-.71-.543,40.731,40.731,0,0,1-7.171-8.82A20.673,20.673,0,0,1,.258,13.429,11.039,11.039,0,0,1,6.513.93,10.8,10.8,0,0,1,19.361,4.122a11.063,11.063,0,0,1,2.022,9.8A21.494,21.494,0,0,1,18.5,20.435a41.677,41.677,0,0,1-6.686,8.023A8.008,8.008,0,0,1,11.1,29Zm6.265-17.936a6.042,6.042,0,1,0-6.21,5.855,6.056,6.056,0,0,0,6.21-5.855" transform="translate(0 0.001)" fill="#404040"/>
  </g>
</svg>
