<svg xmlns="http://www.w3.org/2000/svg" width="17.706" height="32.786" viewBox="0 0 17.706 32.786">
  <path id="Path_1489" data-name="Path 1489" d="M1011.874,956.194c.508-1.246,1.664-1.153,2.461-.343,4.521,4.592,9.086,9.142,13.635,13.707.09.09.169.191.355.4a1.905,1.905,0,0,1,.219-.375q6.888-6.919,13.781-13.833a1.354,1.354,0,0,1,1.462-.461,1.254,1.254,0,0,1,.6,1.979,3.1,3.1,0,0,1-.238.259q-7.412,7.436-14.833,14.863a2.119,2.119,0,0,1-.861.5,1.079,1.079,0,0,1-1.033-.3c-.1-.085-.186-.176-.276-.267q-7.289-7.31-14.572-14.626a8.154,8.154,0,0,1-.7-.93Z" transform="translate(-955.223 1044.66) rotate(-90)" fill="#fff"/>
</svg>
