<svg xmlns="http://www.w3.org/2000/svg" width="53.333" height="53.333" viewBox="0 0 53.333 53.333">
  <g id="Group_3938" data-name="Group 3938" transform="translate(-1453.333 -1533)">
    <path id="Path" d="M0,0H53.333V53.333H0Z" transform="translate(1453.333 1533)" fill="none"/>
    <path id="Path-2" data-name="Path" d="M39.467,44.8H1.067A1.066,1.066,0,0,1,.032,43.475l1.474-5.893a5.341,5.341,0,0,1,4.156-3.941l5.113-1.036a9.265,9.265,0,0,0,3.2,5.647,9.809,9.809,0,0,0,12.579,0,9.263,9.263,0,0,0,3.2-5.65l5.116,1.032a5.35,5.35,0,0,1,4.152,3.941l1.476,5.9A1.066,1.066,0,0,1,39.467,44.8Zm-19.2-6.932a6.774,6.774,0,0,1-6.857-6.659l1.012-2.774a12.589,12.589,0,0,1-6.776-11.19v-2.59a27.592,27.592,0,0,0,3.838.279c7.631,0,13.738-3.555,18.151-10.567a1.094,1.094,0,0,0,.071-.126,12.606,12.606,0,0,1,3.185,8.382v4.621A12.627,12.627,0,0,1,26.357,28.3a3.2,3.2,0,1,0,.462,4.871,6.729,6.729,0,0,1-2.445,3.366A6.929,6.929,0,0,1,20.267,37.867ZM11.493,12.114a25.6,25.6,0,0,1-3.7-.282,1.094,1.094,0,0,0-.124-.011A12.637,12.637,0,0,1,20.267,0,12.51,12.51,0,0,1,27.8,2.5a1.338,1.338,0,0,0-.176.226,20.738,20.738,0,0,1-6.98,7.047A17.922,17.922,0,0,1,11.493,12.114Z" transform="translate(1459.734 1537.267)" fill="#e1c591"/>
    <path id="Path-3" data-name="Path" d="M1.067,2.133A1.067,1.067,0,1,0,0,1.067,1.067,1.067,0,0,0,1.067,2.133Z" transform="translate(1483.2 1567.133)" fill="#1565d8" opacity="0.3"/>
    <path id="Path-4" data-name="Path" d="M.448,0H.754a3.2,3.2,0,0,1,3.2,3.2V7.467a3.2,3.2,0,0,1-3.2,3.2H0A14.756,14.756,0,0,0,.576,6.578V1.956A14.892,14.892,0,0,0,.448,0Z" transform="translate(1494.18 1547.933)" fill="#1565d8" opacity="0.3"/>
    <path id="Path-5" data-name="Path" d="M3.955,10.667H3.2A3.2,3.2,0,0,1,0,7.467V3.2A3.2,3.2,0,0,1,3.2,0h.307a14.892,14.892,0,0,0-.128,1.956V6.578a14.756,14.756,0,0,0,.576,4.089Z" transform="translate(1461.867 1547.933)" fill="#1565d8" opacity="0.3"/>
  </g>
</svg>
