<svg xmlns="http://www.w3.org/2000/svg" width="39.467" height="39.467" viewBox="0 0 39.467 39.467">
  <g id="Group_3929" data-name="Group 3929" transform="translate(-1525 -5527)">
    <path id="back" d="M19.733,0A19.733,19.733,0,1,1,0,19.733,19.733,19.733,0,0,1,19.733,0Z" transform="translate(1525 5527)" fill="#eee"/>
    <path id="Path" d="M9.317,4.882,8.627,4.8a11.226,11.226,0,0,1-6.57-3.233L1.146.66l-.235.669a4.022,4.022,0,0,0,.856,4.125c.552.585.428.669-.525.321a1.628,1.628,0,0,0-.649-.153,4.993,4.993,0,0,0,.5,1.867A4.457,4.457,0,0,0,2.981,9.272l.676.321-.8.014c-.773,0-.8.014-.718.307A4.173,4.173,0,0,0,4.721,12.2l.856.293-.745.446a7.771,7.771,0,0,1-3.7,1.031A4.087,4.087,0,0,0,0,14.079a10.5,10.5,0,0,0,2.664,1.226,11.659,11.659,0,0,0,9.055-1.031,12.118,12.118,0,0,0,4.6-5.407,14.374,14.374,0,0,0,.939-4.181c0-.641.041-.725.814-1.491a9.1,9.1,0,0,0,.966-1.073c.138-.265.124-.265-.58-.028-1.173.418-1.339.362-.759-.265A4.054,4.054,0,0,0,18.634.339c0-.042-.207.028-.442.153a7.7,7.7,0,0,1-1.215.474l-.745.237-.676-.46A5.618,5.618,0,0,0,14.383.13a4.716,4.716,0,0,0-2.416.056A3.99,3.99,0,0,0,9.276,4.2Z" transform="translate(1535 5538)"/>
  </g>
</svg>
