<svg xmlns="http://www.w3.org/2000/svg" width="39.467" height="39.467" viewBox="0 0 39.467 39.467">
  <g id="Group_3928" data-name="Group 3928" transform="translate(-1594 -5527)">
    <path id="back" d="M19.733,0A19.733,19.733,0,1,1,0,19.733,19.733,19.733,0,0,1,19.733,0Z" transform="translate(1594 5527)" fill="#eee"/>
    <path id="Fill_1" data-name="Fill 1" d="M18.748.452C17.107,0,10.524,0,10.524,0S3.942,0,2.3.452A2.672,2.672,0,0,0,.44,2.362,28.867,28.867,0,0,0,0,7.564a28.867,28.867,0,0,0,.44,5.2A2.673,2.673,0,0,0,2.3,14.677c1.641.452,8.224.452,8.224.452s6.582,0,8.224-.452a2.673,2.673,0,0,0,1.861-1.911,28.86,28.86,0,0,0,.44-5.2,28.859,28.859,0,0,0-.44-5.2A2.672,2.672,0,0,0,18.748.452Z" transform="translate(1603 5539)"/>
    <path id="Fill_2" data-name="Fill 2" d="M0,0,5.262,3.289,0,6.578Z" transform="translate(1611 5543)" fill="#fff"/>
  </g>
</svg>
